<svg width="184" height="184" viewBox="0 0 184 184" fill="none" xmlns="http://www.w3.org/2000/svg">
<circle cx="92" cy="92" r="92" fill="#29BA63"/>
<path d="M74.5549 74.1131C74.4377 73.9588 74.2969 73.8025 74.1543 73.6463L72.6806 74.9998L74.0096 73.4881C73.4096 72.8318 72.7646 72.2849 72.0962 71.8611C72.0923 71.8572 72.0864 71.8533 72.0806 71.8494C72.0434 71.822 72.0063 71.7947 71.9672 71.7693C71.9418 71.7517 71.9144 71.7361 71.889 71.7185C71.8703 71.707 71.8497 71.699 71.831 71.6875C72.6543 68.164 73.0571 64.6067 72.8936 61.7204C72.706 58.5621 70.6831 55.8023 67.7416 54.689L55.6942 50.1284C55.2407 49.9565 54.7365 49.9585 54.2811 50.1265L42.2024 54.6617C39.1299 55.7965 37.0933 58.6422 37.0132 61.8922C36.8158 67.6696 38.8035 79.2108 44.9679 85.5839C47.802 88.5136 51.1441 90 54.9046 90C56.2977 90 57.6407 89.7947 58.9152 89.3912C58.9704 89.436 59.0018 89.4771 59.0676 89.5215C60.9947 91.1211 63.4456 92 65.9923 92C68.67 92 71.2304 91.041 73.177 89.3203C75.6065 87.246 77 84.2128 77 80.9999C77 79.2772 76.5915 77.5662 75.8156 76.0447C75.4325 75.3006 74.9869 74.6228 74.5549 74.1131ZM54.9046 85.9999C52.2719 85.9999 49.8972 84.9237 47.845 82.8046C42.8219 77.6112 40.8264 67.529 41.014 62.0094C41.0531 60.3883 42.0655 58.9781 43.5998 58.4117L54.9827 54.1363L66.3246 58.4313C67.7924 58.9859 68.8029 60.3707 68.8987 61.9528C69.0296 64.2751 68.7325 67.2497 68.0915 70.199C66.121 69.8207 64.0523 70.0405 62.1696 70.7346C62.1209 70.7522 62.0741 70.7727 62.0257 70.7909C61.6029 70.9532 61.193 71.1397 60.794 71.351C60.6787 71.4113 60.565 71.4716 60.4521 71.5359C60.1154 71.7297 59.7939 71.9436 59.4811 72.1719C59.3629 72.2577 59.2407 72.3361 59.1262 72.4269C58.7241 72.7471 58.3404 73.0891 57.9926 73.4666L57.6877 73.7947C55.9443 75.7654 54.9847 78.3241 54.9847 80.9999C54.9847 82.2772 55.1938 83.4921 55.6414 84.7069C55.7 84.8788 55.7626 85.0448 55.8388 85.203C55.9385 85.4472 56.046 85.6894 56.1632 85.9218C55.7548 85.9745 55.3365 85.9999 54.9046 85.9999ZM70.5522 86.3027C68.109 88.455 64.0281 88.5039 61.5498 86.3808C61.5009 86.3398 61.4521 86.3007 61.3993 86.2636C61.3993 86.2636 61.3973 86.2636 61.3973 86.2617C61.2273 86.1074 61.0729 85.955 60.8032 85.6659C60.5256 85.3886 60.3243 85.1308 60.1035 84.748C59.8572 84.3691 59.6696 84.0136 59.5328 83.6581C59.4976 83.5663 59.4839 83.5175 59.435 83.4315C59.4292 83.412 59.3705 83.246 59.3647 83.2265C59.1145 82.5507 58.9875 81.8026 58.9875 80.9999C58.9875 79.3006 59.5914 77.6834 60.6019 76.533L60.8794 76.2361C62.4407 74.5433 64.7961 73.7898 67.0156 74.0976C67.6063 74.1802 68.1904 74.3216 68.7462 74.5603C68.7469 74.5606 68.7477 74.5605 68.7484 74.5607C69.1028 74.7143 69.425 74.8998 69.7489 75.0994C69.7547 75.1033 69.7606 75.1092 69.7665 75.1131C69.8153 75.1502 69.8661 75.1854 69.9189 75.2166C70.302 75.4549 70.687 75.783 71.033 76.16L71.2069 76.3533C71.2616 76.4119 71.3164 76.4686 71.4258 76.6072C71.7307 76.9686 72.0102 77.3963 72.2545 77.869C72.7392 78.8221 72.9972 79.9061 72.9972 80.9999C72.9972 83.0429 72.1157 84.9667 70.5522 86.3027Z" fill="#F3F5FC"/>
<path d="M94.8523 74.5881V71.5455H109.188V74.5881H103.844V89H100.196V74.5881H94.8523ZM115.548 89.2557C114.201 89.2557 113.042 88.983 112.07 88.4375C111.104 87.8864 110.36 87.108 109.837 86.1023C109.315 85.0909 109.053 83.8949 109.053 82.5142C109.053 81.1676 109.315 79.9858 109.837 78.9688C110.36 77.9517 111.096 77.1591 112.045 76.5909C112.999 76.0227 114.119 75.7386 115.403 75.7386C116.266 75.7386 117.07 75.8778 117.815 76.1562C118.565 76.429 119.218 76.8409 119.775 77.392C120.337 77.9432 120.775 78.6364 121.087 79.4716C121.4 80.3011 121.556 81.2727 121.556 82.3864V83.3835H110.502V81.1335H118.138C118.138 80.6108 118.025 80.1477 117.798 79.7443C117.57 79.3409 117.255 79.0256 116.852 78.7983C116.454 78.5653 115.991 78.4489 115.462 78.4489C114.911 78.4489 114.423 78.5767 113.996 78.8324C113.576 79.0824 113.246 79.4205 113.008 79.8466C112.769 80.267 112.647 80.7358 112.641 81.2528V83.392C112.641 84.0398 112.761 84.5994 112.999 85.071C113.244 85.5426 113.587 85.9062 114.031 86.1619C114.474 86.4176 114.999 86.5455 115.607 86.5455C116.011 86.5455 116.38 86.4886 116.715 86.375C117.05 86.2614 117.337 86.0909 117.576 85.8636C117.815 85.6364 117.996 85.358 118.121 85.0284L121.479 85.25C121.309 86.0568 120.96 86.7614 120.431 87.3636C119.908 87.9602 119.232 88.4261 118.403 88.7614C117.579 89.0909 116.627 89.2557 115.548 89.2557ZM126.725 75.9091L129.129 80.4858L131.592 75.9091H135.316L131.523 82.4545L135.418 89H131.711L129.129 84.4744L126.589 89H122.839L126.725 82.4545L122.975 75.9091H126.725ZM144.435 75.9091V78.6364H136.552V75.9091H144.435ZM138.342 72.7727H141.972V84.9773C141.972 85.3125 142.023 85.5739 142.126 85.7614C142.228 85.9432 142.37 86.071 142.552 86.1449C142.739 86.2187 142.955 86.2557 143.2 86.2557C143.37 86.2557 143.54 86.2415 143.711 86.2131C143.881 86.179 144.012 86.1534 144.103 86.1364L144.674 88.8381C144.492 88.8949 144.237 88.9602 143.907 89.0341C143.577 89.1136 143.177 89.1619 142.705 89.179C141.83 89.2131 141.063 89.0966 140.404 88.8295C139.751 88.5625 139.242 88.1477 138.879 87.5852C138.515 87.0227 138.336 86.3125 138.342 85.4545V72.7727ZM152.575 89.2557C151.251 89.2557 150.106 88.9744 149.14 88.4119C148.18 87.8437 147.438 87.054 146.915 86.0426C146.393 85.0256 146.131 83.8466 146.131 82.5057C146.131 81.1534 146.393 79.9716 146.915 78.9602C147.438 77.9432 148.18 77.1534 149.14 76.5909C150.106 76.0227 151.251 75.7386 152.575 75.7386C153.898 75.7386 155.04 76.0227 156.001 76.5909C156.967 77.1534 157.711 77.9432 158.234 78.9602C158.756 79.9716 159.018 81.1534 159.018 82.5057C159.018 83.8466 158.756 85.0256 158.234 86.0426C157.711 87.054 156.967 87.8437 156.001 88.4119C155.04 88.9744 153.898 89.2557 152.575 89.2557ZM152.592 86.4432C153.194 86.4432 153.697 86.2727 154.1 85.9318C154.504 85.5852 154.808 85.1136 155.012 84.517C155.222 83.9205 155.327 83.2415 155.327 82.4801C155.327 81.7188 155.222 81.0398 155.012 80.4432C154.808 79.8466 154.504 79.375 154.1 79.0284C153.697 78.6818 153.194 78.5085 152.592 78.5085C151.984 78.5085 151.472 78.6818 151.058 79.0284C150.648 79.375 150.339 79.8466 150.129 80.4432C149.924 81.0398 149.822 81.7188 149.822 82.4801C149.822 83.2415 149.924 83.9205 150.129 84.517C150.339 85.1136 150.648 85.5852 151.058 85.9318C151.472 86.2727 151.984 86.4432 152.592 86.4432Z" fill="#0A3871"/>
<path d="M71.8352 112.312H64.3693C64.233 111.347 63.9545 110.489 63.5341 109.739C63.1136 108.977 62.5739 108.33 61.9148 107.795C61.2557 107.261 60.4943 106.852 59.6307 106.568C58.7784 106.284 57.8523 106.142 56.8523 106.142C55.0455 106.142 53.4716 106.591 52.1307 107.489C50.7898 108.375 49.75 109.67 49.0114 111.375C48.2727 113.068 47.9034 115.125 47.9034 117.545C47.9034 120.034 48.2727 122.125 49.0114 123.818C49.7614 125.511 50.8068 126.79 52.1477 127.653C53.4886 128.517 55.0398 128.949 56.8011 128.949C57.7898 128.949 58.7045 128.818 59.5455 128.557C60.3977 128.295 61.1534 127.915 61.8125 127.415C62.4716 126.903 63.017 126.284 63.4489 125.557C63.892 124.83 64.1989 124 64.3693 123.068L71.8352 123.102C71.642 124.705 71.1591 126.25 70.3864 127.739C69.625 129.216 68.5966 130.54 67.3011 131.71C66.017 132.869 64.483 133.79 62.6989 134.472C60.9261 135.142 58.9205 135.477 56.6818 135.477C53.5682 135.477 50.7841 134.773 48.3295 133.364C45.8864 131.955 43.9545 129.915 42.5341 127.244C41.125 124.574 40.4205 121.341 40.4205 117.545C40.4205 113.739 41.1364 110.5 42.5682 107.83C44 105.159 45.9432 103.125 48.3977 101.727C50.8523 100.318 53.6136 99.6136 56.6818 99.6136C58.7045 99.6136 60.5795 99.8977 62.3068 100.466C64.0455 101.034 65.5852 101.864 66.9261 102.955C68.267 104.034 69.358 105.358 70.1989 106.926C71.0511 108.494 71.5966 110.29 71.8352 112.312ZM76.9915 135V108.818H84.0312V113.386H84.304C84.7813 111.761 85.5824 110.534 86.7074 109.705C87.8324 108.864 89.1278 108.443 90.5938 108.443C90.9574 108.443 91.3494 108.466 91.7699 108.511C92.1903 108.557 92.5597 108.619 92.8778 108.699V115.142C92.5369 115.04 92.0653 114.949 91.4631 114.869C90.8608 114.79 90.3097 114.75 89.8097 114.75C88.7415 114.75 87.7869 114.983 86.946 115.449C86.1165 115.903 85.4574 116.54 84.9688 117.358C84.4915 118.176 84.2528 119.119 84.2528 120.188V135H76.9915ZM96.6321 135V108.818H103.893V135H96.6321ZM100.28 105.443C99.2003 105.443 98.2741 105.085 97.5014 104.369C96.7401 103.642 96.3594 102.773 96.3594 101.761C96.3594 100.761 96.7401 99.9034 97.5014 99.1875C98.2741 98.4602 99.2003 98.0966 100.28 98.0966C101.359 98.0966 102.28 98.4602 103.041 99.1875C103.814 99.9034 104.2 100.761 104.2 101.761C104.2 102.773 103.814 103.642 103.041 104.369C102.28 105.085 101.359 105.443 100.28 105.443ZM109.71 144.818V108.818H116.869V113.216H117.193C117.511 112.511 117.972 111.795 118.574 111.068C119.188 110.33 119.983 109.716 120.96 109.227C121.949 108.727 123.176 108.477 124.642 108.477C126.551 108.477 128.313 108.977 129.926 109.977C131.54 110.966 132.83 112.46 133.795 114.46C134.761 116.449 135.244 118.943 135.244 121.943C135.244 124.864 134.773 127.33 133.83 129.341C132.898 131.341 131.625 132.858 130.011 133.892C128.409 134.915 126.614 135.426 124.625 135.426C123.216 135.426 122.017 135.193 121.028 134.727C120.051 134.261 119.25 133.676 118.625 132.972C118 132.256 117.523 131.534 117.193 130.807H116.972V144.818H109.71ZM116.818 121.909C116.818 123.466 117.034 124.824 117.466 125.983C117.898 127.142 118.523 128.045 119.341 128.693C120.159 129.33 121.153 129.648 122.324 129.648C123.506 129.648 124.506 129.324 125.324 128.676C126.142 128.017 126.761 127.108 127.182 125.949C127.614 124.778 127.83 123.432 127.83 121.909C127.83 120.398 127.619 119.068 127.199 117.92C126.778 116.773 126.159 115.875 125.341 115.227C124.523 114.58 123.517 114.256 122.324 114.256C121.142 114.256 120.142 114.568 119.324 115.193C118.517 115.818 117.898 116.705 117.466 117.852C117.034 119 116.818 120.352 116.818 121.909Z" fill="#0A3871"/>
</svg>
