<svg width="260" height="235" viewBox="0 0 260 235" fill="none" xmlns="http://www.w3.org/2000/svg">
<path d="M0.473932 192.975C2.7411 191.866 3.70358 188.92 6.16325 188.152C8.68708 187.362 11.489 188.92 13.7989 187.212C14.8042 186.465 15.5527 185.227 16.7719 184.779C17.8413 184.395 18.9535 184.822 19.9801 185.142C20.8571 185.419 21.734 185.676 22.6109 185.953C26.14 187.042 29.6477 188.109 33.1768 189.197C37.1764 190.414 41.1547 191.652 45.1543 192.869C45.5393 192.997 45.7104 192.378 45.3254 192.25C38.0106 190.009 30.7171 187.767 23.4023 185.526C21.6912 185.014 19.916 184.224 18.1407 184.011C16.9002 183.861 15.9164 184.352 15.0394 185.163C13.8203 186.295 12.9006 187.341 11.1254 187.426C9.64955 187.511 8.19514 187.127 6.71934 187.362C3.68219 187.831 2.7411 191.14 0.174493 192.399C-0.210499 192.613 0.110329 193.168 0.473932 192.975Z" fill="#E8E8E8"/>
<path d="M38.9089 190.286C40.4275 190.67 41.6252 189.155 42.9941 188.706C44.8335 188.087 46.8012 188.344 48.4695 189.304C48.8331 189.518 49.1539 188.963 48.7903 188.749C47.3787 187.917 45.7746 187.575 44.149 187.789C43.4432 187.874 42.7802 188.066 42.1385 188.344C41.2188 188.749 40.1494 189.923 39.08 189.667C38.6736 189.56 38.5025 190.179 38.9089 190.286Z" fill="#E8E8E8"/>
<path d="M55.3991 188.685C53.9661 187.511 52.5972 186.252 51.3139 184.907C50.715 184.288 50.1375 183.626 49.5814 182.965C49.2606 182.581 48.9398 182.196 48.6403 181.812C48.4265 181.535 48.2126 181.257 48.0201 180.98C47.6779 180.638 47.6779 180.211 48.0415 179.742C48.2981 179.849 48.7045 179.592 48.4906 179.294C47.1859 177.543 46.2235 175.622 45.6032 173.531C45.4749 173.659 45.3465 173.787 45.2182 173.915C45.924 174.107 46.4373 174.47 46.8223 175.067C47.0362 175.409 47.5923 175.11 47.3784 174.747C44.1916 169.24 41.5822 163.435 39.6144 157.394C39.4433 157.501 39.2508 157.608 39.0797 157.714C48.0415 166.508 52.1053 178.739 59.6554 188.578C59.912 188.899 60.4681 188.578 60.2115 188.258C52.64 178.376 48.5334 166.103 39.5289 157.266C39.315 157.053 38.8872 157.266 38.9942 157.586C40.9833 163.691 43.5927 169.539 46.8223 175.089C47.0148 174.982 47.1859 174.875 47.3784 174.769C46.8865 174.021 46.2448 173.531 45.3893 173.317C45.154 173.253 44.9188 173.467 45.0043 173.701C45.646 175.836 46.6298 177.821 47.9559 179.614C48.1056 179.464 48.2554 179.315 48.4051 179.165C47.8062 178.888 47.1432 179.165 46.9934 179.87C46.8009 180.873 48.0201 181.983 48.5762 182.687C50.4797 185.057 52.64 187.212 54.9927 189.133C55.2707 189.389 55.7199 188.941 55.3991 188.685Z" fill="#E8E8E8"/>
<path d="M53.1536 175.345C49.2182 169.475 46.0313 163.178 43.6786 156.519C43.6144 156.647 43.5288 156.775 43.4647 156.903C44.1919 156.732 44.8121 157.01 45.2185 157.65C45.4324 158.013 45.9457 157.693 45.7746 157.33C42.4594 150.18 39.0801 142.73 39.3153 134.684C39.1228 134.748 38.9089 134.79 38.7164 134.854C44.4271 146.594 49.8598 158.483 54.993 170.478C55.1427 170.82 55.6988 170.564 55.5705 170.222C54.715 167.661 53.8808 165.078 53.0253 162.517C52.6189 161.257 52.1911 160.019 51.7848 158.76C51.5067 157.928 50.9078 156.113 52.1056 155.665C51.9773 155.623 51.8703 155.558 51.742 155.516C53.2819 158.525 54.8005 161.535 56.3405 164.545C56.533 164.907 57.0891 164.587 56.8966 164.224C55.2283 160.959 54.4583 157.351 54.608 153.68C54.3941 153.702 54.1803 153.744 53.9878 153.766C58.4366 164.801 63.5912 175.558 69.3874 185.953C69.5799 186.316 70.136 185.996 69.9435 185.633C64.1687 175.281 59.0354 164.587 54.608 153.595C54.4797 153.275 53.9878 153.296 53.9878 153.68C53.838 157.458 54.6508 161.151 56.3619 164.545C56.5544 164.438 56.7255 164.331 56.918 164.224C55.378 161.215 53.8594 158.205 52.3195 155.196C52.2553 155.089 52.0842 155.004 51.9559 155.046C49.817 155.836 51.1859 158.888 51.6564 160.318C52.7686 163.669 53.8594 167.042 54.9716 170.393C55.1641 170.308 55.3566 170.222 55.5491 170.137C50.4159 158.141 44.9832 146.252 39.2725 134.513C39.1228 134.214 38.6737 134.385 38.6737 134.684C38.417 142.837 41.8605 150.414 45.2185 157.65C45.411 157.544 45.5821 157.437 45.7746 157.33C45.2185 156.455 44.3202 156.071 43.2936 156.284C43.1225 156.327 43.0155 156.519 43.0797 156.668C45.4538 163.371 48.6621 169.731 52.6189 175.644C52.8328 176.007 53.3889 175.686 53.1536 175.345Z" fill="#E8E8E8"/>
<path d="M10.8901 216.604C18.2905 213.039 26.0973 209.411 34.5457 210.265C38.5454 210.67 42.4166 211.823 46.3949 212.335C48.4054 212.591 50.4373 212.698 52.4478 212.463C54.33 212.228 56.1052 211.545 57.9446 211.14C60.3187 210.606 62.479 211.161 64.7675 211.801C66.6497 212.314 68.5105 212.74 70.4568 212.292C70.8632 212.207 70.6921 211.588 70.2857 211.673C66.393 212.591 62.7356 209.795 58.8002 210.35C56.8538 210.627 55.0358 211.396 53.1109 211.737C51.079 212.079 49.0043 212.036 46.951 211.78C42.9086 211.31 38.9731 210.115 34.9093 209.667C30.9097 209.219 26.9528 209.731 23.1243 210.841C18.7611 212.121 14.6331 214.085 10.5693 216.049C10.1843 216.22 10.5265 216.775 10.8901 216.604Z" fill="#E8E8E8"/>
<path d="M54.3084 234.298C56.8108 233.231 59.2705 232.057 61.6446 230.734C62.8851 230.029 64.1042 229.304 65.3234 228.535C66.4142 227.831 67.505 226.828 68.7028 226.315C70.0502 225.76 72.0821 226.806 73.4296 227.212C74.8626 227.66 76.2956 228.087 77.7073 228.535C80.6375 229.432 83.5677 230.328 86.4765 231.225C86.8615 231.353 87.0326 230.734 86.6476 230.606C83.5249 229.645 80.3808 228.685 77.2581 227.724C75.7609 227.255 74.2637 226.806 72.7665 226.337C71.6116 225.974 70.1572 225.227 68.938 225.526C67.8044 225.803 66.7778 226.785 65.8153 227.425C64.5748 228.236 63.2915 229.026 62.0082 229.773C59.4202 231.246 56.7466 232.569 53.9875 233.722C53.6025 233.893 53.9448 234.448 54.3084 234.298Z" fill="#E8E8E8"/>
<path d="M80.9157 234.96C82.5412 234.149 84.1667 233.317 85.7922 232.505C87.2894 231.737 88.8935 230.713 90.6046 230.563C92.3371 230.392 93.6845 231.524 95.1817 232.185C96.4436 232.74 97.8125 233.06 99.1814 233.146C102.39 233.317 105.384 231.716 108.571 231.886C111.116 232.036 113.683 234.128 116.185 232.804C116.549 232.612 116.228 232.057 115.864 232.249C114.303 233.082 112.613 232.271 111.073 231.78C109.747 231.353 108.464 231.161 107.074 231.31C103.78 231.652 100.764 233.039 97.3847 232.249C94.5829 231.609 92.444 229.282 89.4283 230.158C88.038 230.563 86.7333 231.332 85.45 231.972C83.8245 232.783 82.199 233.615 80.5735 234.426C80.2312 234.597 80.5521 235.152 80.9157 234.96Z" fill="#E8E8E8"/>
<path d="M93.4066 230.328C92.0805 229.176 90.8827 227.895 89.8989 226.422C89.4497 225.761 89.0433 225.056 88.6583 224.352C88.4658 223.989 88.2947 223.626 88.145 223.263C88.0167 222.964 87.8884 222.687 87.7814 222.388C87.5889 222.068 87.6745 221.769 88.0381 221.492C88.2306 221.406 88.4231 221.321 88.6156 221.236C86.2628 217.778 84.787 213.85 84.2951 209.709C84.1026 209.795 83.9315 209.859 83.739 209.944C84.124 210.435 84.509 210.926 84.9154 211.438C85.1506 211.737 85.5998 211.353 85.4287 211.054C81.7071 204.416 79.718 196.946 79.6752 189.347C79.4827 189.432 79.3116 189.496 79.1191 189.582C80.5735 190.756 81.6857 192.207 82.3701 193.936C82.5626 193.851 82.7551 193.765 82.9476 193.68C81.2793 190.158 80.9371 186.188 81.921 182.431C81.7071 182.431 81.5146 182.431 81.3007 182.431C85.6853 194.96 90.0486 207.468 94.4332 219.998C94.5615 220.382 95.1818 220.211 95.0535 219.827C92.8505 213.402 91.7597 206.657 91.8238 199.848C91.6313 199.934 91.4602 199.998 91.2677 200.083C92.5724 201.257 93.3852 202.73 93.6846 204.459C93.7488 204.822 94.3263 204.736 94.3049 204.373C94.2407 203.071 94.1552 201.748 94.091 200.446C93.9199 200.531 93.7702 200.638 93.5991 200.723C94.7326 201.449 94.9465 203.37 95.3101 204.565C95.6951 205.846 96.0801 207.127 96.4865 208.429C97.2779 211.076 98.0906 213.701 98.882 216.348C100.486 221.62 102.09 226.913 103.694 232.185C103.823 232.569 104.443 232.42 104.315 232.014C102.582 226.337 100.871 220.638 99.1387 214.96C98.3045 212.185 97.449 209.411 96.6148 206.636C96.1871 205.206 95.7593 203.797 95.3315 202.367C95.0535 201.492 94.7326 200.702 93.9413 200.19C93.7488 200.062 93.4493 200.233 93.4493 200.467C93.5135 201.769 93.5991 203.093 93.6632 204.395C93.8771 204.373 94.091 204.331 94.2835 204.309C93.9841 202.474 93.0857 200.873 91.6955 199.635C91.4816 199.443 91.1608 199.571 91.1394 199.87C91.0752 206.721 92.166 213.53 94.3904 220.019C94.6043 219.955 94.7968 219.912 95.0107 219.848C90.6261 207.319 86.2628 194.811 81.8782 182.282C81.7713 182.004 81.3435 181.962 81.2579 182.282C80.2313 186.231 80.6163 190.35 82.3488 194.021C82.4985 194.341 83.076 194.107 82.9262 193.765C82.199 191.93 81.0654 190.371 79.5041 189.133C79.2902 188.963 78.948 189.069 78.948 189.368C78.9908 197.074 81.0013 204.672 84.787 211.396C84.9581 211.268 85.1293 211.14 85.3004 211.012C84.9154 210.521 84.5304 210.03 84.124 209.517C83.9529 209.304 83.5465 209.475 83.5679 209.752C84.0598 214.021 85.557 218.055 87.9739 221.598C88.1878 221.897 88.6156 221.705 88.5514 221.342C88.4445 220.745 87.7386 220.531 87.2467 220.894C86.3484 221.534 87.2253 223.05 87.5461 223.776C88.7653 226.486 90.5833 228.856 92.8291 230.798C93.2782 231.033 93.7274 230.584 93.4066 230.328Z" fill="#E8E8E8"/>
<path d="M71.0342 182.453C70.7561 178.44 78.0495 180.745 80.0814 181.129C83.418 181.748 86.7332 182.367 90.0698 182.986C96.7216 184.224 103.395 185.462 110.047 186.7C110.453 186.786 110.624 186.167 110.218 186.081C102.582 184.651 94.9678 183.242 87.3321 181.812C83.5891 181.108 79.8462 180.404 76.1032 179.721C74.7557 179.464 73.1944 179.187 71.9325 179.891C70.97 180.404 70.3283 181.343 70.4139 182.453C70.4139 182.858 71.0769 182.858 71.0342 182.453Z" fill="#E8E8E8"/>
<path d="M105.619 185.996C107.844 186.231 109.213 184.118 110.945 183.093C112.421 182.239 113.704 182.901 115.223 183.2C116.913 183.541 118.645 183.584 120.356 183.37C120.762 183.328 120.762 182.687 120.356 182.73C118.431 182.965 116.506 182.88 114.624 182.41C113.49 182.111 112.464 181.748 111.33 182.196C109.32 182.965 107.951 185.612 105.619 185.355C105.213 185.313 105.213 185.953 105.619 185.996Z" fill="#E8E8E8"/>
<path d="M146.407 227.041C151.54 225.248 156.716 223.455 162.02 222.175C167.56 220.851 173.142 220.318 178.832 220.488C184.457 220.659 190.039 221.3 195.643 221.812C201.268 222.345 206.893 222.858 212.518 223.391C218.978 223.989 225.458 224.587 231.918 225.206C232.324 225.248 232.324 224.608 231.918 224.565C220.389 223.498 208.861 222.431 197.311 221.342C186.211 220.318 175.046 218.802 163.988 221.086C157.914 222.345 152.053 224.394 146.214 226.422C145.851 226.55 146.022 227.169 146.407 227.041Z" fill="#E8E8E8"/>
<path d="M169.015 206.038C172.843 205.227 176.436 203.626 180.051 202.175C183.922 200.638 187.836 199.571 191.986 199.208C196.178 198.845 200.391 199.059 204.562 199.315C208.754 199.571 212.946 199.87 217.16 200.169C222.058 200.531 226.977 200.937 231.875 201.364C232.282 201.407 232.282 200.766 231.875 200.724C223.191 199.955 214.508 199.293 205.803 198.738C197.525 198.205 189.376 197.991 181.484 200.916C177.292 202.474 173.228 204.459 168.822 205.398C168.459 205.505 168.608 206.124 169.015 206.038Z" fill="#E8E8E8"/>
<path d="M218.315 181.428C221.373 179.101 224.603 176.818 228.025 175.067C229.693 174.214 231.49 173.531 233.372 173.381C235.404 173.21 237.436 173.616 239.425 173.872C243.468 174.363 247.531 174.662 251.595 174.918C254.29 175.089 257.712 175.473 259.616 173.125C259.872 172.805 259.423 172.357 259.167 172.677C257.006 175.345 252.451 174.342 249.499 174.15C245.435 173.872 241.414 173.488 237.372 172.976C235.639 172.762 233.928 172.591 232.196 172.912C230.485 173.21 228.881 173.893 227.362 174.705C224.068 176.455 220.946 178.632 217.973 180.894C217.673 181.129 217.994 181.684 218.315 181.428Z" fill="#E8E8E8"/>
<path d="M100.572 177.906C103.609 175.622 106.667 173.36 109.704 171.076C112.613 168.899 115.33 166.615 119.137 166.423C122.73 166.252 126.409 166.658 129.981 166.956C133.831 167.277 137.659 167.704 141.466 168.237C144.675 168.685 148.503 169.881 151.54 168.216C151.904 168.024 151.583 167.469 151.219 167.661C149.658 168.515 147.926 168.515 146.193 168.301C144.332 168.066 142.472 167.746 140.611 167.49C137.018 166.999 133.403 166.594 129.767 166.295C126.195 165.996 122.495 165.569 118.923 165.783C115.608 165.975 113.148 167.682 110.56 169.625C107.116 172.186 103.694 174.769 100.251 177.33C99.93 177.607 100.251 178.162 100.572 177.906Z" fill="#E8E8E8"/>
<path d="M220.903 200.467C221.095 199.059 221.373 197.693 221.78 196.326C221.972 195.686 222.165 195.046 222.421 194.405C222.571 194.021 222.977 193.381 223.533 193.53C223.812 193.616 223.94 194.576 223.961 194.768C224.004 195.11 224.475 195.217 224.582 194.854C225.587 191.588 226.742 188.002 229.822 186.103C229.651 186.017 229.501 185.91 229.33 185.825C229.33 186.359 229.308 186.914 229.308 187.447C229.308 187.746 229.758 187.895 229.907 187.618C231.811 183.669 233.885 179.528 237.735 177.138C237.586 177.01 237.415 176.903 237.265 176.775C235.34 181.748 233.094 186.593 230.549 191.289C230.378 191.588 230.806 191.972 231.062 191.673C232.495 189.966 233.95 188.258 235.832 187.02C235.682 186.871 235.532 186.721 235.383 186.572C233.009 191.567 230.421 196.433 227.576 201.172C227.362 201.535 227.918 201.855 228.132 201.492C230.955 196.753 233.565 191.887 235.939 186.892C236.067 186.636 235.789 186.252 235.49 186.444C233.565 187.725 232.067 189.454 230.592 191.204C230.763 191.332 230.934 191.46 231.105 191.588C233.672 186.85 235.939 181.962 237.885 176.924C237.992 176.668 237.628 176.433 237.415 176.562C233.458 179.016 231.319 183.221 229.351 187.276C229.544 187.34 229.758 187.383 229.95 187.447C229.95 186.914 229.971 186.359 229.971 185.825C229.971 185.59 229.693 185.419 229.479 185.548C226.271 187.533 225.009 191.247 223.961 194.683C224.175 194.704 224.389 194.747 224.582 194.768C224.475 193.68 223.491 191.823 222.293 193.21C221.694 193.915 221.459 195.067 221.202 195.942C220.774 197.351 220.475 198.802 220.261 200.275C220.24 200.702 220.839 200.873 220.903 200.467Z" fill="#E8E8E8"/>
<path d="M71.4622 164.438C73.1305 163.541 74.8202 162.645 76.6596 162.154C78.6059 161.642 80.5309 161.812 82.4772 162.069C86.3485 162.581 90.2198 163.093 94.0697 163.605C94.4761 163.669 94.4761 163.029 94.0697 162.965C89.9418 162.41 85.7924 161.812 81.6645 161.322C79.7609 161.087 77.9429 161.087 76.1035 161.62C74.3496 162.133 72.7241 163.008 71.12 163.862C70.7564 164.096 71.0986 164.63 71.4622 164.438Z" fill="#E8E8E8"/>
<path d="M201.568 19.6583C203.108 18.3563 205.268 18.6124 206.958 19.4449C208.241 20.0639 209.289 21.3232 210.786 21.3872C212.176 21.4299 213.331 20.4908 214.508 19.8718C215.299 19.4662 216.112 19.1887 217.01 19.3808C217.973 19.5729 218.807 20.1279 219.684 20.5121C222.571 21.7714 224.496 20.0212 226.934 18.6338C227.619 18.2496 228.346 17.9081 229.137 17.844C230.143 17.7587 231.041 18.2069 231.939 18.5911C233.351 19.1887 234.42 19.4235 235.853 18.8472C237.329 18.2709 238.527 18.3563 240.003 18.8899C240.944 19.2314 241.842 19.6583 242.826 19.8718C244.302 20.2133 245.884 20.1279 246.997 18.9966C247.296 18.6978 246.826 18.2496 246.548 18.5484C245.114 19.9998 242.933 19.3168 241.286 18.6765C239.618 18.0361 237.907 17.3531 236.131 18.0148C235.019 18.4417 234.271 18.7405 233.073 18.335C232.26 18.0575 231.511 17.6092 230.677 17.3745C229.415 16.9903 228.239 17.2037 227.084 17.78C225.758 18.4417 224.603 19.4876 223.213 20.0425C221.373 20.7682 219.94 19.8077 218.272 19.1034C217.053 18.5911 215.898 18.5057 214.679 19.0393C213.203 19.701 211.77 21.1524 210.037 20.5334C209.118 20.2133 208.391 19.4662 207.556 18.9966C206.851 18.6124 206.081 18.335 205.289 18.1855C203.771 17.9081 202.295 18.1642 201.097 19.1674C200.798 19.4876 201.268 19.9358 201.568 19.6583Z" fill="#E8E8E8"/>
<path d="M209.267 34.2365C209.674 34.2365 209.674 33.5962 209.267 33.5962C208.861 33.5962 208.861 34.2365 209.267 34.2365Z" fill="#E8E8E8"/>
<path d="M213.545 36.5631C214.55 34.7488 216.925 35.6239 218.4 36.2215C219.876 36.8192 221.202 37.182 222.764 36.6484C224.047 36.2002 225.202 35.3464 226.528 35.0476C228.367 34.6207 229.415 36.1789 231.084 36.5417C233.693 37.118 236.324 34.2152 238.784 35.4318C239.468 35.7733 239.938 36.2215 240.751 36.1575C241.5 36.1148 242.184 35.752 242.911 35.5812C244.943 35.1116 247.061 35.4745 248.879 36.4777C249.242 36.6698 249.563 36.1148 249.2 35.9227C248.045 35.2824 246.804 34.8982 245.499 34.7701C244.836 34.7061 244.152 34.7274 243.489 34.8341C242.698 34.9409 241.97 35.2824 241.2 35.4318C240.152 35.6239 239.703 35.1116 238.848 34.7488C238.42 34.578 237.949 34.4926 237.5 34.514C236.431 34.5567 235.404 35.0049 234.42 35.3678C233.158 35.8373 231.811 36.2856 230.528 35.6452C229.437 35.1116 228.581 34.3005 227.298 34.3005C224.646 34.3219 222.785 36.8619 219.983 36.0935C217.908 35.5172 214.572 33.4894 213.032 36.2215C212.797 36.6057 213.353 36.9259 213.545 36.5631Z" fill="#E8E8E8"/>
<path d="M192.799 62.1124C194.317 60.9171 196.05 60.9812 197.718 61.7496C198.638 62.1765 199.621 62.582 200.584 62.0057C201.14 61.6642 201.504 61.1306 202.167 60.9385C202.872 60.725 203.621 60.8744 204.305 61.0452C205.525 61.344 206.701 61.8776 207.963 61.963C209.46 62.0697 210.829 61.4294 212.283 61.28C213.845 61.1306 214.936 62.0697 216.39 62.2832C217.802 62.4753 218.892 61.344 220.304 61.5575C222.015 61.8136 223.705 62.3899 225.394 62.8168C225.801 62.9235 225.972 62.3045 225.566 62.1978C223.79 61.7496 221.951 61.0665 220.133 60.8744C218.593 60.7037 217.481 61.963 215.941 61.4934C214.508 61.0665 213.481 60.4476 211.941 60.661C210.294 60.8958 208.797 61.5361 207.107 61.1733C205.803 60.8958 204.541 60.2768 203.193 60.1914C202.701 60.1701 202.188 60.2128 201.717 60.4049C201.119 60.6397 200.798 61.1306 200.242 61.4507C198.958 62.1978 197.226 60.6183 195.857 60.5116C194.552 60.4049 193.355 60.8531 192.328 61.6428C192.007 61.9203 192.478 62.3686 192.799 62.1124Z" fill="#E8E8E8"/>
<path d="M70.1786 15.5388C70.585 15.5388 70.585 14.8985 70.1786 14.8985C69.7722 14.8985 69.7722 15.5388 70.1786 15.5388Z" fill="#E8E8E8"/>
<path d="M72.061 16.0297C72.446 14.1301 74.9699 15.3467 75.8896 15.923C76.9376 16.5847 78.0498 17.1823 79.3331 16.8195C80.7233 16.4139 81.6644 15.2186 83.2044 15.1333C84.6588 15.0692 86.0705 15.7309 87.4393 16.1578C88.6157 16.5207 89.8562 16.7768 91.0753 16.478C92.5084 16.1365 93.7275 15.1333 95.1819 14.8771C98.048 14.3862 100.636 16.7128 103.545 15.8163C103.93 15.6882 103.78 15.0692 103.374 15.1973C100.337 16.1578 97.4491 13.4684 94.3691 14.4289C92.7864 14.9198 91.4603 16.0297 89.7279 15.9657C88.1237 15.9017 86.6693 15.1333 85.1507 14.7491C83.953 14.4502 82.7339 14.3649 81.5789 14.8985C80.9158 15.1973 80.3384 15.6882 79.6753 16.0084C78.5845 16.5207 77.6648 16.2218 76.6809 15.6669C75.6115 15.0479 74.6918 14.3222 73.3871 14.4289C72.4674 14.4929 71.6547 14.9625 71.4836 15.9017C71.3766 16.2645 71.9969 16.4353 72.061 16.0297Z" fill="#E8E8E8"/>
<path d="M74.0071 140.66C76.5523 139.593 79.1189 141.493 81.6855 141.621C83.0116 141.685 84.2949 141.364 85.5996 141.108C87.2465 140.788 88.6582 140.767 90.2409 141.428C91.2034 141.834 92.0803 142.09 93.0642 141.706C93.6203 141.492 94.0908 141.13 94.6469 140.938C95.2672 140.724 95.9088 140.681 96.5719 140.681C98.8604 140.724 101.149 141.514 103.331 140.489C103.694 140.319 103.373 139.764 103.01 139.934C100.678 141.023 98.0904 139.828 95.6308 140.084C94.4544 140.212 93.6844 140.895 92.5936 141.215C91.2889 141.599 90.0056 140.489 88.7223 140.297C85.9632 139.87 83.3538 141.407 80.5733 140.852C78.349 140.404 76.1032 139.102 73.836 140.062C73.4724 140.212 73.6435 140.831 74.0071 140.66Z" fill="#E8E8E8"/>
<path d="M27.7656 109.22C29.632 109.22 31.145 107.71 31.145 105.847C31.145 103.985 29.632 102.475 27.7656 102.475C25.8992 102.475 24.3862 103.985 24.3862 105.847C24.3862 107.71 25.8992 109.22 27.7656 109.22Z" fill="#0A3871"/>
<path d="M224.475 86.0395C225.786 86.0395 226.849 84.9788 226.849 83.6703C226.849 82.3618 225.786 81.3011 224.475 81.3011C223.164 81.3011 222.101 82.3618 222.101 83.6703C222.101 84.9788 223.164 86.0395 224.475 86.0395Z" fill="#0A3871"/>
<path d="M203.108 3.50049C204.076 3.50049 204.861 2.71688 204.861 1.75025C204.861 0.783612 204.076 0 203.108 0C202.139 0 201.354 0.783612 201.354 1.75025C201.354 2.71688 202.139 3.50049 203.108 3.50049Z" fill="#0A3871"/>
<path d="M125.853 155.281C127.058 155.281 128.034 154.306 128.034 153.104C128.034 151.901 127.058 150.927 125.853 150.927C124.648 150.927 123.671 151.901 123.671 153.104C123.671 154.306 124.648 155.281 125.853 155.281Z" fill="#0A3871"/>
<path d="M25.2844 31.6325C26.6665 31.6325 27.7869 30.5145 27.7869 29.1352C27.7869 27.756 26.6665 26.6379 25.2844 26.6379C23.9024 26.6379 22.782 27.756 22.782 29.1352C22.782 30.5145 23.9024 31.6325 25.2844 31.6325Z" fill="#0A3871"/>
<path d="M111.565 119.252C112.357 119.252 112.998 118.611 112.998 117.822C112.998 117.032 112.357 116.391 111.565 116.391C110.774 116.391 110.132 117.032 110.132 117.822C110.132 118.611 110.774 119.252 111.565 119.252Z" fill="#0A3871"/>
<path d="M246.825 131.418C248.03 131.418 249.007 130.443 249.007 129.241C249.007 128.038 248.03 127.064 246.825 127.064C245.621 127.064 244.644 128.038 244.644 129.241C244.644 130.443 245.621 131.418 246.825 131.418Z" fill="#0A3871"/>
<path d="M9.02933 167.405C9.92708 167.405 10.6549 166.678 10.6549 165.783C10.6549 164.887 9.92708 164.16 9.02933 164.16C8.13158 164.16 7.40381 164.887 7.40381 165.783C7.40381 166.678 8.13158 167.405 9.02933 167.405Z" fill="#0A3871"/>
<path d="M75.5044 41.3443C73.6436 45.1222 71.7614 48.9002 69.9006 52.6782C77.6005 62.9876 85.3003 73.2756 93.0001 83.585C94.9892 80.5754 96.957 77.5018 98.9461 74.4069C103.63 67.0644 108.1 59.8072 112.378 52.6142C110.924 48.9216 109.448 45.2076 107.993 41.515C107.052 41.0241 106.111 40.5545 105.17 40.0636C96.0586 40.0849 86.9472 40.1063 77.8571 40.1276C77.0444 40.5545 76.2744 40.9601 75.5044 41.3443Z" fill="white"/>
<path d="M70.1573 52.8489C71.7828 49.2844 73.4511 45.7412 75.1622 42.2194C75.3333 41.8565 74.7986 41.515 74.6061 41.8992C72.895 45.4211 71.2267 48.9643 69.6012 52.5288C69.43 52.8916 69.9862 53.2331 70.1573 52.8489Z" fill="black"/>
<path d="M69.7295 53.2331C77.2582 63.5425 84.9366 73.7239 92.7648 83.8198C93.0214 84.14 93.4706 83.6917 93.2139 83.3716C85.4285 73.3183 77.7929 63.1797 70.2855 52.913C70.0503 52.5928 69.4942 52.913 69.7295 53.2331Z" fill="black"/>
<path d="M75.312 41.8566C76.2103 41.387 77.0873 40.8961 77.9856 40.4265C78.3492 40.2344 78.0284 39.6794 77.6648 39.8715C76.7664 40.3411 75.8895 40.832 74.9912 41.3016C74.6062 41.5151 74.9484 42.0487 75.312 41.8566Z" fill="black"/>
<path d="M78.5201 40.4692C85.1933 40.4692 91.8879 40.4692 98.561 40.4692C98.9674 40.4692 98.9674 39.8288 98.561 39.8288C91.8879 39.8288 85.1933 39.8288 78.5201 39.8288C78.1137 39.8288 78.1137 40.4692 78.5201 40.4692Z" fill="black"/>
<path d="M112.677 52.5501C111.33 48.9856 109.94 45.4638 108.507 41.9206C108.357 41.5364 107.737 41.7071 107.886 42.0913C109.319 45.6132 110.71 49.1563 112.057 52.7209C112.207 53.1051 112.827 52.9343 112.677 52.5501Z" fill="black"/>
<path d="M111.972 52.8703C105.705 63.1157 99.3098 73.297 92.7863 83.3929C92.5511 83.7344 93.1072 84.0546 93.3424 83.7131C99.8659 73.6172 106.261 63.4572 112.528 53.1905C112.742 52.849 112.186 52.5075 111.972 52.8703Z" fill="black"/>
<path d="M108.122 41.2589C107.373 40.7894 106.624 40.2984 105.876 39.8288C105.534 39.6154 105.213 40.149 105.555 40.3838C106.304 40.8534 107.052 41.3443 107.801 41.8139C108.164 42.0487 108.485 41.4937 108.122 41.2589Z" fill="black"/>
<path d="M105.149 39.7648C99.5665 39.7648 93.9842 39.7648 88.4232 39.7648C88.0168 39.7648 88.0168 40.4052 88.4232 40.4052C94.0056 40.4052 99.5879 40.4052 105.149 40.4052C105.555 40.4052 105.555 39.7648 105.149 39.7648Z" fill="black"/>
<path d="M70.4139 53.1691C74.2424 51.5256 78.0709 49.8821 81.8995 48.2385C82.2844 48.0678 81.9422 47.5342 81.5786 47.6836C77.7501 49.3271 73.9216 50.9706 70.0931 52.6142C69.7294 52.7849 70.0503 53.3399 70.4139 53.1691Z" fill="black"/>
<path d="M75.4189 41.6645C77.7716 42.0273 80.0815 42.5396 82.3701 43.1799C82.7765 43.2866 82.9476 42.6677 82.5412 42.5609C80.2526 41.8993 77.9427 41.4083 75.59 41.0455C75.1836 40.9814 74.9911 41.6004 75.4189 41.6645Z" fill="black"/>
<path d="M82.199 43.0732C82.7123 44.6741 83.1615 46.2749 83.5465 47.9184C83.632 48.324 84.2523 48.1532 84.1668 47.7477C83.7818 46.1041 83.3326 44.5033 82.8193 42.9025C82.6909 42.5183 82.0707 42.6677 82.199 43.0732Z" fill="black"/>
<path d="M83.1827 43.1372C88.9148 43.1372 94.6255 43.1372 100.358 43.1372C100.764 43.1372 100.764 42.4969 100.358 42.4969C94.6255 42.4969 88.9148 42.4969 83.1827 42.4969C82.7763 42.4969 82.7763 43.1372 83.1827 43.1372Z" fill="black"/>
<path d="M100.08 43.2653C99.8658 44.4392 99.6519 45.6345 99.438 46.8085C99.3738 47.214 99.9941 47.3848 100.058 46.9792C100.272 45.8053 100.486 44.61 100.7 43.4361C100.764 43.0305 100.144 42.8598 100.08 43.2653Z" fill="black"/>
<path d="M83.8888 47.961C88.8937 47.961 93.8986 47.961 98.9248 47.961C99.3312 47.961 99.3312 47.3207 98.9248 47.3207C93.9199 47.3207 88.915 47.3207 83.8888 47.3207C83.4824 47.3207 83.4824 47.961 83.8888 47.961Z" fill="black"/>
<path d="M100.978 43.1373C103.309 42.6463 105.619 42.1554 107.951 41.6645C108.357 41.5791 108.186 40.9601 107.779 41.0455C105.448 41.5364 103.138 42.0274 100.807 42.5183C100.4 42.6037 100.572 43.2226 100.978 43.1373Z" fill="black"/>
<path d="M99.9086 47.769C102.069 48.1105 104.079 49.3271 106.047 50.2449C108.143 51.2268 110.218 52.2086 112.314 53.1905C112.678 53.3612 113.02 52.8063 112.635 52.6355C110.41 51.5896 108.207 50.5651 105.983 49.5192C104.101 48.6228 102.154 47.4915 100.08 47.15C99.6734 47.086 99.5023 47.7049 99.9086 47.769Z" fill="black"/>
<path d="M84.0809 48.9429C86.8614 60.3835 89.6205 71.8455 92.401 83.2862C92.508 83.6917 93.1068 83.521 93.0213 83.1154C90.2408 71.6748 87.4817 60.2128 84.7012 48.7721C84.5943 48.3666 83.974 48.5373 84.0809 48.9429Z" fill="black"/>
<path d="M99.0102 49.7113C96.4008 60.725 94.2406 71.8669 92.5723 83.0727C92.5081 83.4783 93.1284 83.649 93.1925 83.2435C94.8608 72.0376 97.0211 60.9171 99.6305 49.882C99.7374 49.4765 99.1171 49.3057 99.0102 49.7113Z" fill="black"/>
<path d="M99.224 28.3456C100.186 25.8909 100.721 23.3083 100.807 20.6616C100.828 20.256 100.186 20.256 100.165 20.6616C100.079 23.2442 99.5448 25.7629 98.6037 28.1748C98.454 28.559 99.0742 28.7084 99.224 28.3456Z" fill="black"/>
<path d="M103.609 28.7724C105.662 26.4458 107.972 24.3968 110.56 22.6679C110.902 22.4331 110.581 21.8781 110.239 22.1129C107.608 23.8632 105.234 25.9549 103.16 28.3242C102.881 28.623 103.331 29.0712 103.609 28.7724Z" fill="black"/>
<path d="M107.822 32.7211C110.474 31.9314 113.212 31.6326 115.971 31.846C116.378 31.8674 116.378 31.227 115.971 31.2057C113.148 30.9922 110.367 31.2911 107.651 32.1021C107.266 32.2302 107.416 32.8492 107.822 32.7211Z" fill="black"/>
<path d="M62.757 17.7587C63.0137 21.9849 60.6396 26.019 56.8324 27.8546C56.6185 27.9613 56.6399 28.2815 56.8324 28.4096C60.3187 30.5013 61.9229 34.3433 62.8426 38.1213C62.9495 38.5268 63.5484 38.3561 63.4628 37.9505C62.5004 34.0018 60.7893 30.0104 57.1533 27.8546C57.1533 28.0467 57.1533 28.2175 57.1533 28.4096C61.1529 26.4672 63.6767 22.177 63.3987 17.7587C63.3773 17.3531 62.7356 17.3531 62.757 17.7587Z" fill="#E8E8E8"/>
<path d="M62.9924 17.7587C62.7144 22.1983 65.2382 26.4885 69.2378 28.4095C69.2378 28.2174 69.2378 28.0467 69.2378 27.8546C65.5804 30.0317 63.8694 34.0231 62.9069 37.9932C62.7999 38.3988 63.4202 38.5695 63.5271 38.164C64.4468 34.3647 66.051 30.5013 69.5587 28.4095C69.7512 28.3028 69.7725 27.9613 69.5587 27.8546C65.7515 26.019 63.356 21.9849 63.6127 17.7587C63.6555 17.3531 63.0138 17.3531 62.9924 17.7587Z" fill="#E8E8E8"/>
<path d="M167.132 177.992C167.881 177.671 168.908 177.202 170.084 176.54C172.052 175.452 173.036 174.897 173.634 174.022C174.404 172.869 174.105 172.25 175.11 171.097C175.26 170.905 175.966 170.158 176.885 169.753C178.468 169.091 179.944 169.881 182.404 170.756C184.671 171.567 186.446 171.951 189.997 172.741C191.408 173.061 193.119 173.381 195.6 174.15C196.306 174.363 196.862 174.555 197.247 174.683C197.29 175.131 197.311 176.284 196.563 177.33C196.221 177.799 195.75 178.184 195.001 178.525C193.269 179.336 191.622 179.187 190.232 179.123C187.237 178.995 188.478 179.422 181.42 179.55C179.88 179.571 178.618 179.571 177.741 179.571C176.65 180.318 175.559 181.087 174.447 181.876C172.565 183.242 170.768 184.608 169.057 185.953C168.416 183.306 167.774 180.638 167.132 177.992Z" fill="black"/>
<path d="M158.213 150.671C156.673 151.482 156.502 151.781 150.77 156.647C141.83 164.224 140.846 164.63 132.74 171.695C124.976 178.44 123.521 180.126 122.046 182.346C118.367 187.959 117.554 192.655 117.319 194.939C116.998 198.013 116.57 202.282 119.287 205.654C120.998 207.767 123.222 208.642 123.971 208.92C126.216 209.774 128.056 209.667 131.371 209.432C135.777 209.112 139.135 208.258 140.461 207.895C141.915 207.49 145.295 206.486 149.53 204.395C153.508 202.431 155.219 200.98 160.652 197.33C163.069 195.708 166.64 193.338 171.132 190.606C171.41 188.472 171.175 186.807 170.94 185.761C170.383 183.285 169.25 181.577 167.988 179.699C166.961 178.162 165.977 176.988 165.293 176.22C166.897 175.003 168.993 173.253 171.196 170.905C172.672 169.326 175.003 166.807 176.95 163.264C179.345 158.91 181.741 154.513 180.201 151.482C177.784 146.722 166.277 146.509 158.213 150.671Z" fill="white"/>
<path opacity="0.18" d="M177.377 152.997C176.158 155.815 174.148 159.806 170.939 164.075C166.277 170.244 161.571 173.659 154.47 178.717C134.387 193.018 128.997 196.284 129.596 197.65C130.408 199.507 141.723 196.177 143.37 195.686C155.39 192.143 164.245 186.679 169.784 182.687C168.373 180.532 166.961 178.376 165.55 176.241C167.282 175.003 169.678 173.04 171.923 170.115C173.164 168.515 175.046 166.039 176.265 162.303C177.506 158.589 177.548 155.281 177.377 152.997Z" fill="#9B9797"/>
<path d="M158.128 150.649C150.514 156.306 143.092 162.239 135.948 168.451C132.526 171.418 129.104 174.384 125.895 177.565C123.051 180.382 120.399 183.499 118.795 187.212C117.126 191.054 116.656 195.494 117.062 199.656C117.404 203.093 118.666 206.551 121.81 208.343C125.104 210.2 129.253 210.008 132.889 209.624C137.36 209.176 141.766 208.087 145.936 206.401C155.24 202.623 162.534 195.558 171.324 190.884C171.688 190.692 171.367 190.137 171.004 190.329C163.667 194.235 157.422 199.87 150.064 203.776C146.214 205.825 142.065 207.319 137.787 208.237C133.831 209.069 129.382 209.71 125.361 208.941C123.479 208.578 121.661 207.81 120.313 206.401C119.008 205.014 118.303 203.199 117.939 201.342C117.148 197.308 117.511 192.741 118.837 188.856C120.163 184.971 122.751 181.706 125.575 178.803C128.505 175.793 131.713 173.018 134.857 170.265C142.45 163.605 150.321 157.245 158.449 151.226C158.769 150.97 158.47 150.415 158.128 150.649Z" fill="black"/>
<path d="M137.167 194.406C144.183 191.695 150.535 187.639 156.566 183.2C159.539 181.023 162.47 178.76 165.378 176.498C168.245 174.256 170.982 171.887 173.207 169.006C173.463 168.685 172.907 168.365 172.651 168.685C170.383 171.631 167.539 174 164.63 176.284C161.764 178.525 158.876 180.745 155.925 182.901C150.022 187.212 143.84 191.183 136.996 193.808C136.611 193.936 136.782 194.555 137.167 194.406Z" fill="black"/>
<path d="M165.058 176.434C169.186 179.891 171.367 185.249 170.79 190.606C170.747 191.012 171.389 191.012 171.431 190.606C172.009 185.099 169.742 179.55 165.507 175.985C165.207 175.708 164.758 176.156 165.058 176.434Z" fill="black"/>
<path d="M170.747 184.651C171.966 184.288 173.036 183.264 174.062 182.538C175.345 181.641 176.607 180.745 177.891 179.849C178.233 179.614 177.912 179.059 177.57 179.294C176.415 180.105 175.239 180.937 174.084 181.748C173.014 182.495 171.838 183.648 170.576 184.032C170.169 184.139 170.341 184.758 170.747 184.651Z" fill="black"/>
<path d="M167.218 178.29C169.635 177.287 171.859 175.921 173.869 174.235C174.19 173.957 173.72 173.509 173.42 173.787C171.517 175.409 169.378 176.711 167.068 177.671C166.683 177.842 166.854 178.461 167.218 178.29Z" fill="black"/>
<path d="M173.634 173.957C174.041 173.957 174.041 173.317 173.634 173.317C173.228 173.317 173.228 173.957 173.634 173.957Z" fill="black"/>
<path d="M174.404 173.189C174.768 172.335 175.153 171.396 175.837 170.734C176.757 169.838 177.869 169.966 179.046 170.222C181.227 170.713 183.366 171.396 185.505 172.015C187.494 172.57 189.483 173.061 191.537 173.296C192.734 173.424 193.74 173.573 194.809 174.107C195.6 174.491 196.285 174.875 197.162 174.961C197.568 175.003 197.568 174.363 197.162 174.32C195.985 174.214 195.066 173.403 193.953 173.04C192.841 172.677 191.601 172.698 190.446 172.506C187.922 172.101 185.462 171.332 183.024 170.606C181.826 170.265 180.628 169.923 179.409 169.646C178.511 169.454 177.57 169.219 176.672 169.497C175.11 169.966 174.362 171.631 173.784 173.018C173.634 173.403 174.255 173.573 174.404 173.189Z" fill="black"/>
<path d="M177.805 180.318C182.382 179.635 186.917 179.528 191.537 179.443C193.141 179.422 194.852 179.23 196.135 178.184C197.226 177.287 197.846 175.985 197.547 174.598C197.461 174.192 196.841 174.363 196.927 174.769C197.333 176.711 195.579 178.141 193.847 178.568C192.071 178.995 190.146 178.781 188.328 178.824C184.735 178.888 181.185 179.187 177.634 179.721C177.228 179.763 177.42 180.382 177.805 180.318Z" fill="black"/>
<path d="M194.039 176.07C195.622 174.939 197.226 173.808 198.809 172.677C198.916 171.951 199.258 170.372 200.563 169.027C200.948 168.621 201.846 167.682 203.193 167.426C204.605 167.148 205.696 167.789 206.915 168.344C208.883 169.24 210.786 169.582 214.551 170.307C217.524 170.862 219.021 171.14 221.16 171.033C224.068 170.862 226.143 170.094 227.384 171.311C227.512 171.439 228.047 172.015 228.004 172.719C227.94 173.616 226.977 174.192 226.207 174.64C222.849 176.561 220.967 177.116 220.967 177.116C216.219 178.504 213.823 179.208 211.77 179.379C210.102 179.507 207.728 179.571 204.862 179.123C204.027 181.983 201.504 183.819 199.13 183.669C196.071 183.477 193.248 180.041 194.039 176.07Z" fill="black"/>
<path d="M163.325 157.202C163.796 155.772 164.673 153.958 166.319 153.36C167.389 152.976 168.373 153.232 168.694 153.317C170.683 153.808 174.768 153.104 182.917 151.716C186.959 151.033 192.071 150.03 197.953 148.536C197.974 149.625 197.953 151.055 197.889 152.72C197.739 156.455 197.354 159.272 197.268 159.934C196.905 162.581 196.263 166.978 194.317 172.314C193.825 173.68 193.333 174.811 192.991 175.58C193.825 175.964 194.723 176.476 195.6 177.202C199.215 180.083 200.263 184.16 200.605 185.889C200.092 186.508 199.322 187.426 198.338 188.472C194.36 192.698 190.681 195.067 183.665 199.4C179.345 202.068 176.179 204.01 171.11 206.999C164.951 210.627 159.967 213.445 153.764 215.216C152.224 215.665 149.786 216.262 146.706 215.942C145.209 215.793 142.514 215.515 139.926 213.637C136.611 211.246 135.563 207.746 135.135 206.209C134.173 202.772 134.536 199.549 135.435 196.198C136.055 193.85 138.301 186.06 146.107 177.287C147.669 175.537 152.118 171.588 160.972 163.691C163.111 161.791 164.865 160.233 166.041 159.208C165.143 158.525 164.245 157.864 163.325 157.202Z" fill="white"/>
<path opacity="0.18" d="M192.414 151.29C191.922 153.168 191.13 155.879 189.933 159.059C179.003 187.959 154.578 200.446 156.567 203.562C158.021 205.867 171.966 200.126 182.019 194.085C189.548 189.56 195.151 184.715 198.894 181.065C198.296 180.19 197.376 178.995 195.986 177.863C194.638 176.775 193.355 176.113 192.392 175.708C193.055 174.747 193.932 173.296 194.681 171.439C195.173 170.243 195.601 168.963 196.157 166.359C197.055 162.239 197.419 158.974 197.526 157.949C197.782 155.494 198.017 152.314 197.975 148.557C196.114 149.454 194.275 150.372 192.414 151.29Z" fill="#9B9797"/>
<path d="M197.654 148.536C197.675 152.57 197.418 156.604 196.862 160.617C196.349 164.224 195.707 167.938 194.381 171.353C192.948 175.046 190.489 177.735 187.516 180.275C184.478 182.858 181.42 185.398 178.361 187.938C174.854 190.862 171.325 193.765 167.817 196.689C167.496 196.945 167.945 197.394 168.266 197.138C174.704 191.801 181.142 186.487 187.537 181.086C190.36 178.696 192.927 176.22 194.467 172.783C195.964 169.454 196.691 165.804 197.269 162.218C197.996 157.693 198.338 153.125 198.295 148.536C198.295 148.109 197.654 148.109 197.654 148.536Z" fill="black"/>
<path d="M163.689 157.8C164.566 158.269 165.443 158.739 166.341 159.208C166.705 159.401 167.025 158.846 166.662 158.654C165.785 158.184 164.908 157.714 164.01 157.245C163.646 157.053 163.325 157.608 163.689 157.8Z" fill="black"/>
<path d="M166.341 158.952C158.727 165.142 150.727 171.268 144.375 178.781C138.9 185.249 134.387 193.445 134.408 202.132C134.408 205.953 135.456 209.944 138.279 212.655C141.103 215.387 145.188 216.454 149.038 216.262C153.743 216.027 158.213 214.17 162.405 212.121C166.897 209.923 171.153 207.319 175.431 204.736C184.243 199.4 194.082 194.427 200.691 186.295C200.947 185.974 200.498 185.526 200.242 185.846C194.702 192.677 186.917 197.052 179.495 201.535C175.41 204.011 171.367 206.529 167.196 208.877C163.111 211.182 158.855 213.381 154.342 214.683C150.107 215.899 145.38 216.156 141.381 214.042C137.531 212.036 135.563 208.151 135.157 203.925C134.365 195.387 138.664 186.892 143.862 180.404C150.342 172.314 158.812 165.868 166.811 159.379C167.111 159.144 166.662 158.696 166.341 158.952Z" fill="black"/>
<path d="M192.841 175.836C196.862 177.757 199.664 181.556 200.327 185.953C200.391 186.359 201.012 186.188 200.947 185.782C200.284 181.236 197.333 177.244 193.183 175.281C192.798 175.11 192.478 175.665 192.841 175.836Z" fill="black"/>
<path d="M194.125 176.391C194.98 176.049 195.665 175.473 196.392 174.918C197.247 174.256 198.124 173.616 198.98 172.954C199.301 172.698 198.98 172.143 198.659 172.399C197.889 172.976 197.119 173.552 196.349 174.15C195.601 174.726 194.852 175.43 193.954 175.772C193.59 175.921 193.74 176.54 194.125 176.391Z" fill="black"/>
<path d="M199.301 172.698C199.728 171.439 200.242 170.201 200.926 169.048C201.867 167.469 203.279 167.639 204.862 168.045C207.321 168.664 209.674 169.603 212.155 170.158C216.968 171.225 221.908 171.588 226.828 171.268C227.234 171.247 227.234 170.606 226.828 170.628C221.031 171.012 215.192 170.414 209.589 168.835C208.241 168.45 206.936 167.96 205.589 167.575C204.562 167.277 203.343 166.935 202.274 167.148C201.311 167.341 200.755 168.066 200.285 168.877C199.622 170.03 199.108 171.268 198.68 172.527C198.552 172.911 199.172 173.082 199.301 172.698Z" fill="black"/>
<path d="M200.22 183.007C201.824 181.791 203.407 180.574 205.011 179.358C205.332 179.101 205.011 178.546 204.69 178.803C203.086 180.019 201.504 181.236 199.899 182.452C199.579 182.709 199.899 183.264 200.22 183.007Z" fill="black"/>
<path d="M204.99 179.208C210.209 180.339 215.534 179.486 220.475 177.607C222.721 176.754 225.287 175.793 227.212 174.342C228.56 173.338 228.752 171.417 226.977 170.734C226.592 170.585 226.421 171.204 226.806 171.353C227.768 171.716 227.875 172.762 227.212 173.488C226.892 173.851 226.442 174.086 226.015 174.342C225.138 174.833 224.239 175.281 223.341 175.708C221.438 176.604 219.47 177.373 217.438 177.97C213.438 179.123 209.246 179.507 205.14 178.611C204.755 178.504 204.583 179.123 204.99 179.208Z" fill="black"/>
<path d="M149.252 87.0216C152.503 84.3321 157.358 81.0878 163.839 79.1668C166.876 78.2703 170.683 77.1604 175.731 77.5873C183.473 78.249 188.799 82.0483 190.681 83.4357C193.633 85.5915 195.643 87.8753 196.884 89.4762C197.119 104.439 197.44 119.422 197.846 134.385C197.975 138.995 198.103 143.627 198.253 148.238C195.215 150.116 190.959 152.229 185.569 153.467C172.95 156.348 162.448 152.506 158.192 150.649C158.171 146.871 157.936 141.194 156.781 134.385C154.898 123.2 151.968 118.697 150.129 109.07C149.209 104.097 148.332 96.6266 149.252 87.0216Z" fill="#0A3871"/>
<path d="M187.922 90.714C186.874 91.8666 186.681 93.1686 186.746 98.1632C186.788 103.414 187.066 107 187.237 111.162C187.366 114.172 187.473 116.562 187.409 119.678C187.344 123.606 187.088 126.829 186.852 128.985C184.756 131.333 182.896 133.168 181.505 134.492C178.383 137.458 174.982 140.66 169.956 143.67C167.967 144.844 166.255 145.697 165.101 146.231C164.052 146.06 162.876 145.804 161.593 145.484C158.556 144.716 157.294 144.032 155.005 144.032C154.321 144.032 152.161 144.032 151.947 144.801C151.754 145.441 152.952 146.444 153.893 146.935C154.77 147.384 155.155 147.256 156.032 147.661C157.016 148.131 157.657 148.814 158.042 149.326C157.636 149.902 157.016 150.777 156.331 151.909C155.54 153.232 155.369 153.744 154.449 155.324C153.487 156.989 152.995 157.821 152.567 158.248C151.904 158.867 151.497 158.995 148.524 160.318C145.573 161.642 145.06 161.94 145.06 162.303C145.06 162.666 145.637 162.752 147.926 163.733C149.786 164.523 149.958 164.694 150.92 164.971C152.118 165.313 152.845 165.526 153.722 165.334C155.112 165.057 156.01 164.011 156.395 163.456C156.588 163.627 157.058 163.99 157.679 164.011C158.171 164.011 158.577 163.819 158.898 163.563C160.245 162.602 160.908 160.831 162.234 158.846C162.47 158.504 163.304 157.245 164.651 155.836C165.485 154.94 166.255 154.278 166.812 153.83C167.56 153.659 168.672 153.403 169.998 153.019C175.153 151.546 178.875 149.774 181.997 148.28C183.815 147.405 185.869 146.252 189.954 143.968C193.504 141.983 195.344 140.874 196.969 138.696C197.14 138.462 198.017 137.288 198.787 135.559C199.022 135.025 199.857 133.125 200.306 129.796C200.52 128.323 200.52 127.512 200.541 122.901C200.584 117.032 200.584 117.736 200.584 117.138C200.562 108.537 200.113 109.305 199.964 101.408C199.942 100.661 199.921 98.6328 199.301 96.0715C198.637 93.2967 197.803 92.0587 197.333 91.4397C196.734 90.65 196.007 89.7108 194.766 89.1772C192.499 88.174 189.483 88.9851 187.922 90.714Z" fill="white"/>
<path opacity="0.25" d="M194.788 89.1559C195.301 90.8421 195.921 93.2754 196.349 96.2209C196.862 99.7854 197.055 103.713 195.9 113.98C194.938 122.56 194.467 126.85 193.226 130.863C191.451 136.583 190.168 140.745 186.254 144.033C183.73 146.146 180.971 147.127 175.431 149.07C171.367 150.5 167.881 151.354 165.486 151.887C163.775 154.192 161.229 157.117 157.615 159.891C154.791 162.069 152.075 163.563 149.829 164.587C150.15 164.801 151.476 165.654 153.273 165.42C155.369 165.142 156.503 163.648 156.695 163.371C157.101 163.669 157.7 163.99 158.363 163.883C159.732 163.669 160.459 161.727 160.823 160.852C161.614 159.038 163.197 156.54 166.748 153.808C169.1 153.189 172.287 152.25 175.987 150.841C181.142 148.856 184.607 146.935 188.328 144.865C194.296 141.535 195.643 140.169 196.627 138.846C198.424 136.434 199.172 133.958 199.493 132.869C200.071 130.927 200.178 128.75 200.392 124.502C200.541 121.343 200.541 118.91 200.541 117.074C200.541 113.915 200.477 111.568 200.413 109.54C200.327 106.594 200.156 103.137 199.728 98.9957C199.408 95.9861 199.172 94.7908 198.488 93.4461C197.44 91.3117 195.879 89.9456 194.788 89.1559Z" fill="#9B9797"/>
<path d="M187.601 90.6286C186.489 93.4034 186.36 96.3916 186.425 99.3585C186.489 102.624 186.66 105.869 186.81 109.134C187.109 115.751 187.323 122.389 186.532 128.985C186.489 129.39 187.13 129.39 187.173 128.985C187.943 122.539 187.772 116.028 187.473 109.561C187.323 106.359 187.152 103.158 187.066 99.9348C186.981 96.8398 187.045 93.7235 188.221 90.7993C188.371 90.4151 187.751 90.2444 187.601 90.6286Z" fill="black"/>
<path d="M187.772 128.43C185.805 129.518 184.222 131.098 182.703 132.741C181.056 134.513 179.409 136.242 177.57 137.821C173.806 141.087 169.571 143.776 165.036 145.868C164.651 146.039 164.994 146.594 165.357 146.423C169.72 144.417 173.806 141.855 177.463 138.76C179.281 137.245 180.949 135.58 182.553 133.851C184.222 132.037 185.89 130.201 188.072 129.006C188.457 128.771 188.136 128.216 187.772 128.43Z" fill="black"/>
<path d="M165.186 145.911C162.833 145.42 160.459 144.908 158.107 144.374C156.93 144.118 155.733 143.798 154.535 143.584C153.786 143.456 152.995 143.392 152.332 143.819C151.305 144.481 151.305 145.697 152.225 146.423C152.888 146.957 153.743 147.191 154.535 147.448C155.818 147.853 156.909 148.365 157.743 149.454C158 149.774 158.556 149.454 158.299 149.134C157.551 148.173 156.652 147.49 155.497 147.085C154.706 146.807 153.829 146.636 153.102 146.231C152.588 145.953 151.925 145.527 152.31 144.758C152.674 144.032 153.594 144.096 154.257 144.203C156.032 144.459 157.807 144.972 159.582 145.377C161.4 145.783 163.218 146.167 165.036 146.551C165.421 146.615 165.593 145.996 165.186 145.911Z" fill="black"/>
<path d="M157.23 149.561C156.289 151.29 155.326 152.997 154.385 154.726C153.914 155.559 153.508 156.455 152.952 157.266C152.375 158.099 151.605 158.525 150.706 158.952C149.017 159.742 147.199 160.382 145.573 161.3C144.846 161.727 144.375 162.496 144.996 163.243C145.765 164.16 147.284 163.798 148.311 163.627C149.722 163.392 151.07 162.922 152.353 162.325C155.027 161.044 157.294 159.038 158.919 156.562C159.155 156.22 158.599 155.9 158.363 156.242C156.93 158.461 154.941 160.254 152.61 161.492C151.498 162.069 150.3 162.538 149.081 162.816C148.396 162.986 147.669 163.136 146.942 163.157C146.279 163.2 146.108 163.285 145.787 162.624C145.381 162.239 145.423 161.983 145.894 161.855C146.044 161.791 146.172 161.727 146.322 161.663C147.69 161.023 149.081 160.404 150.45 159.763C151.519 159.273 152.567 158.846 153.294 157.885C154.15 156.754 154.749 155.409 155.433 154.171C156.224 152.741 157.016 151.311 157.786 149.902C157.978 149.518 157.422 149.198 157.23 149.561Z" fill="black"/>
<path d="M167.004 154.235C172.715 152.634 178.255 150.5 183.559 147.853C186.19 146.53 188.756 145.1 191.259 143.52C193.505 142.112 195.879 140.681 197.483 138.526C197.718 138.184 197.162 137.864 196.927 138.205C195.258 140.468 192.649 141.941 190.296 143.392C187.901 144.865 185.42 146.231 182.896 147.49C177.741 150.03 172.373 152.079 166.833 153.638C166.448 153.723 166.619 154.342 167.004 154.235Z" fill="black"/>
<path d="M188.029 91.205C189.804 87.7258 194.36 88.5156 196.606 90.9915C199.301 93.9798 199.429 98.3554 199.729 102.155C200.37 110.458 200.499 118.825 199.985 127.128C199.729 131.162 199.13 135.431 196.435 138.632C196.178 138.953 196.627 139.401 196.884 139.081C199.301 136.178 200.135 132.507 200.477 128.835C200.926 124.139 200.926 119.38 200.884 114.663C200.841 109.732 200.606 104.78 200.156 99.8708C199.814 96.1782 199.151 92.1014 196.093 89.6468C193.483 87.5551 189.12 87.6191 187.452 90.8848C187.281 91.2477 187.837 91.5678 188.029 91.205Z" fill="black"/>
<path d="M147.733 163.99C149.294 164.694 151.177 165.761 152.952 165.761C154.663 165.74 155.925 164.331 157.08 163.264C160.395 160.19 163.71 157.117 167.025 154.064C167.325 153.787 166.876 153.339 166.576 153.616C163.774 156.22 160.972 158.803 158.171 161.407C156.93 162.538 155.647 164.16 154.085 164.865C152.246 165.697 149.722 164.203 148.075 163.456C147.69 163.264 147.369 163.819 147.733 163.99Z" fill="black"/>
<path d="M156.438 163.541C157.144 164.865 158.706 164.331 159.497 163.413C161.058 161.578 162.277 159.358 163.603 157.373C163.839 157.031 163.283 156.711 163.047 157.053C162.213 158.291 161.379 159.529 160.545 160.767C160.074 161.45 158 165.142 156.994 163.221C156.802 162.858 156.246 163.179 156.438 163.541Z" fill="black"/>
<path d="M151.476 162.496C152.118 162.837 152.909 163.179 153.615 162.837C153.979 162.645 154.128 162.346 154.299 162.005C154.599 161.428 154.898 160.98 155.454 160.617C155.797 160.382 155.476 159.828 155.134 160.062C154.62 160.404 154.192 160.831 153.893 161.386C153.679 161.791 153.551 162.282 152.995 162.325C152.588 162.368 152.139 162.111 151.797 161.941C151.455 161.77 151.112 162.303 151.476 162.496Z" fill="black"/>
<path d="M147.091 40.5332C146.343 42.0486 145.594 44.5886 145.359 45.421C145.017 46.6163 144.247 49.4125 143.819 53.1264C143.584 55.1755 143.327 57.4166 143.541 60.3835C143.648 61.7923 143.798 64.0121 144.632 66.7655C145.188 68.6438 146.001 71.3546 148.204 74.1294C150.129 76.5413 152.332 78.0568 154.085 78.9746C155.198 78.9959 156.545 78.9319 158.042 78.6544C160.737 78.1421 162.833 77.1389 164.245 76.3278C164.437 77.4164 164.694 78.569 165.015 79.7643C165.678 82.2403 166.491 84.4174 167.304 86.2957C168.18 86.1463 169.228 85.8902 170.341 85.3779C173.87 83.7344 175.559 80.7035 176.158 79.4441C175.837 78.2062 175.581 76.8615 175.346 75.4741C174.533 70.2874 174.747 65.6556 175.26 61.899C175.709 62.0484 176.436 62.2405 177.335 62.1978C179.089 62.0911 180.286 61.1306 180.885 60.6183C181.398 60.1914 183.73 58.121 183.644 55.0474C183.623 54.3217 183.58 52.5501 182.318 51.5896C181.142 50.7145 179.559 51.0346 178.404 51.2694C177.078 51.5469 176.094 52.1019 175.495 52.4861C175.944 51.0133 176.886 47.2353 175.495 42.8384C175.196 41.8992 173.207 35.9227 167.346 33.3401C159.39 29.7969 149.829 35.0476 147.091 40.5332Z" fill="white"/>
<path opacity="0.24" d="M171.261 40.6612C171.432 42.6463 171.56 45.5278 171.261 48.9429C170.341 59.295 166.234 66.4881 165.165 68.281C163.539 71.0131 160.759 74.9832 156.31 78.8892C157.636 78.7185 159.155 78.4196 160.78 77.8433C165.25 76.2638 168.245 73.5531 169.87 71.7815C169.999 74.1507 170.405 77.0322 171.367 80.1912C171.795 81.5359 172.266 82.7739 172.758 83.8838C173.891 82.4111 175.004 80.9383 176.137 79.4442C175.902 78.0568 175.688 76.584 175.538 75.0686C175.046 70.4795 175.046 66.2533 175.303 62.4967C176.265 62.518 177.656 62.4326 179.131 61.8563C185.591 59.295 189.27 49.1137 185.783 43.5641C185.634 43.3293 184.864 42.134 183.281 41.0668C178.383 37.7797 172.159 40.277 171.261 40.6612Z" fill="#9B9797"/>
<path d="M145.53 44.7807C145.102 43.308 144.503 40.4905 145.124 37.0327C145.316 35.9655 145.979 32.529 148.332 29.8182C151.776 25.8695 156.096 26.6166 161.7 24.6102C165.25 23.3509 170.127 20.7042 175.067 14.4716C174.618 16.7768 174.169 19.1033 173.72 21.4085C174.49 21.622 177.078 22.1769 179.73 20.8749C184.136 18.7191 184.521 13.5111 184.543 13.2763C185.077 14.4716 186.04 17.1183 185.612 20.4907C185.313 22.7959 184.478 24.5248 183.88 25.5707C184.136 25.8482 185.505 27.2569 187.088 27.0435C189.013 26.7873 190.809 24.162 190.296 20.7682C190.724 22.0275 191.237 24.0979 191.109 26.6379C190.938 29.7329 189.911 32.0594 189.227 33.3187C189.398 33.4681 190.489 34.45 192.028 34.2579C193.376 34.0871 194.531 33.1053 194.98 31.7179C194.873 33.148 194.616 35.2184 193.782 37.5876C192.649 40.7893 191.708 41.0454 191.237 43.3293C190.489 46.9152 192.413 48.1318 191.9 51.3335C191.472 54.0229 189.719 55.7091 187.494 57.8649C183.452 61.7709 178.81 63.884 174.918 65.058C175.089 63.8627 175.281 62.6674 175.452 61.4721C175.944 61.7709 176.8 62.1765 177.869 62.1338C180.051 62.0484 181.42 60.1061 182.147 59.0602C182.981 57.8862 184.371 55.8798 183.623 53.7241C183.003 51.9738 181.356 51.2481 181.206 51.1841C179.281 50.373 176.8 51.0987 175.196 53.0624C174.298 49.5405 173.421 46.04 172.522 42.5182C169.485 40.5972 166.469 38.6975 163.432 36.7765C161.935 36.4991 157.85 35.9441 153.273 37.9718C148.653 40.0209 146.3 43.5001 145.53 44.7807Z" fill="#0A3871"/>
<path d="M145.209 44.6954C143.391 51.4829 142.3 58.6973 143.969 65.6343C145.338 71.2692 148.803 77.6939 154.706 79.5295C155.091 79.6576 155.262 79.0386 154.877 78.9105C148.952 77.0749 145.637 70.3941 144.418 64.7592C142.985 58.1424 144.076 51.3121 145.808 44.8661C145.936 44.4819 145.316 44.3112 145.209 44.6954Z" fill="black"/>
<path d="M155.176 79.4228C165.036 78.4196 173.271 71.3119 175.581 61.6642C175.666 61.2586 175.068 61.0879 174.961 61.4934C172.715 70.821 164.78 77.8006 155.176 78.7825C154.77 78.8251 154.749 79.4655 155.176 79.4228Z" fill="black"/>
<path d="M175.025 61.835C179.431 64.5244 183.73 58.8894 184.008 54.9407C184.158 52.8489 183.195 51.2481 181.121 50.6505C179.196 50.0955 177.1 50.6718 175.731 52.1232C175.453 52.422 175.902 52.8703 176.18 52.5715C177.313 51.3548 179.025 50.8212 180.671 51.1841C181.527 51.3762 182.468 51.8457 182.96 52.6141C183.495 53.4466 183.431 54.5992 183.302 55.517C182.789 58.8254 179.11 63.5639 175.346 61.2587C175.004 61.0666 174.661 61.6215 175.025 61.835Z" fill="black"/>
<path d="M174.982 61.7923C174.148 67.7047 174.447 73.7025 175.859 79.5082C175.966 79.9137 176.586 79.743 176.479 79.3374C175.089 73.6384 174.789 67.7474 175.602 61.963C175.645 61.5575 175.025 61.3867 174.982 61.7923Z" fill="black"/>
<path d="M163.924 76.4132C164.587 79.871 165.614 83.2221 167.026 86.4665C167.197 86.8507 167.753 86.5092 167.582 86.1463C166.191 82.966 165.186 79.6576 164.545 76.2425C164.459 75.8369 163.86 76.0077 163.924 76.4132Z" fill="black"/>
<path d="M167.475 86.5519C171.603 85.8902 175.089 83.0514 176.65 79.188C176.8 78.8038 176.18 78.6331 176.03 79.0173C174.554 82.6885 171.196 85.3139 167.304 85.9329C166.897 85.9969 167.068 86.6159 167.475 86.5519Z" fill="black"/>
<path d="M164.437 77.1602C165.314 77.2029 165.913 76.6053 166.576 76.093C167.453 75.41 168.287 74.6843 169.057 73.9159C170.49 72.4858 171.645 70.8423 172.394 68.9639C172.544 68.5797 171.923 68.409 171.774 68.7932C171.111 70.4581 170.084 71.9308 168.843 73.2115C168.287 73.8091 167.688 74.3428 167.068 74.8764C166.384 75.4527 165.4 76.5626 164.437 76.5199C164.031 76.4985 164.031 77.1389 164.437 77.1602Z" fill="black"/>
<path d="M164.48 76.8189C166.298 75.6449 167.988 74.3002 169.571 72.8275C169.87 72.55 169.421 72.0804 169.121 72.3792C167.582 73.8307 165.935 75.1327 164.159 76.2853C163.796 76.4774 164.138 77.0323 164.48 76.8189Z" fill="black"/>
<path d="M151.904 45.9333C150.706 51.3762 150.022 56.9044 149.872 62.4753C149.872 62.7955 150.3 62.9022 150.471 62.6461C151.305 61.3227 152.139 59.978 152.973 58.6547C153.187 58.3131 152.631 57.9716 152.417 58.3345C151.583 59.6578 150.749 61.0026 149.915 62.3259C150.107 62.3899 150.321 62.4326 150.514 62.4967C150.663 56.9898 151.348 51.5043 152.524 46.1254C152.61 45.6986 151.99 45.5278 151.904 45.9333Z" fill="black"/>
<path d="M152.759 70.5008C152.246 69.5403 151.904 68.5158 151.818 67.4272C151.754 66.6588 151.925 63.5425 153.38 64.7805C154.15 65.4422 154.043 66.8936 154.064 67.8541C154.064 68.3024 154.064 68.7719 154.021 69.2202C154 69.5403 153.957 69.8605 153.893 70.1593C153.337 70.5435 152.909 70.5222 152.631 70.1166C152.353 69.8178 151.882 70.266 152.182 70.5649C153.102 71.504 154.299 71.5467 154.556 70.0739C154.748 69.0281 154.748 67.9181 154.663 66.8723C154.599 66.0398 154.599 64.8445 153.978 64.2042C153.059 63.265 151.754 64.1402 151.39 65.1434C150.727 66.9363 151.369 69.1988 152.225 70.821C152.396 71.1839 152.952 70.8637 152.759 70.5008Z" fill="black"/>
<path d="M157.187 51.2908C157.828 54.3004 161.785 54.5352 162.962 51.7604C163.111 51.3762 162.491 51.2054 162.341 51.5896C161.379 53.8521 158.299 53.4252 157.807 51.12C157.722 50.7358 157.101 50.8852 157.187 51.2908Z" fill="black"/>
<path d="M155.925 43.8843C156.738 42.07 158.834 41.1949 160.759 41.6004C162.748 42.0273 164.266 43.5641 165.25 45.2503C165.464 45.6132 166.02 45.293 165.806 44.9301C164.673 42.9878 162.876 41.2589 160.566 40.9174C158.491 40.6186 156.267 41.6004 155.369 43.5428C155.198 43.9483 155.754 44.2685 155.925 43.8843Z" fill="black"/>
<path d="M143.391 44.5886C143.969 43.3934 144.974 42.0913 146.45 42.1127C147.862 42.134 148.888 43.372 149.594 44.4606C149.808 44.8021 150.364 44.4819 150.15 44.1404C149.337 42.8384 148.118 41.4937 146.45 41.4723C144.739 41.451 143.541 42.8597 142.857 44.2685C142.664 44.6313 143.22 44.9515 143.391 44.5886Z" fill="black"/>
<path d="M147.177 54.2577C147.555 54.2577 147.862 52.8529 147.862 51.1201C147.862 49.3872 147.555 47.9824 147.177 47.9824C146.799 47.9824 146.493 49.3872 146.493 51.1201C146.493 52.8529 146.799 54.2577 147.177 54.2577Z" fill="black"/>
<path d="M149.145 88.0246C149.081 88.8144 148.995 89.9029 148.952 91.1623C148.76 95.4738 148.931 98.7396 148.995 99.6147C149.166 102.453 149.551 106.167 150.449 110.479C149.594 111.461 148.311 112.912 146.664 114.62C143.541 117.886 141.937 119.55 139.37 121.279C136.504 123.2 134.515 123.798 133.446 124.075C132.098 124.396 130.815 124.694 129.253 124.353C126.708 123.777 125.19 121.898 124.634 121.173C123.222 119.38 122.901 117.629 122.324 114.214C121.896 111.717 121.81 109.817 121.682 106.146C121.618 104.396 121.532 102.261 121.575 99.4012C121.618 96.1782 121.789 92.3576 122.259 88.0887C122.473 86.1677 122.773 83.7984 123.243 81.109C122.88 80.5968 122.495 80.0845 122.088 79.5509C121.661 78.9959 121.254 78.4623 120.826 77.9287C119.736 78.8465 118.666 79.7857 117.575 80.7035C117.297 80.8102 116.805 80.9809 116.207 80.9169C115.073 80.8102 114.41 80.0204 114.175 79.7643C113.127 78.569 113.276 77.0536 113.319 76.7547C114.795 75.1539 116.271 73.5744 117.768 71.9736C117.789 71.0558 117.918 69.8605 118.281 68.5371C118.559 67.5553 118.901 66.7442 119.222 66.0612C119.5 65.5062 119.885 64.8872 120.377 64.2682C121.254 63.1156 122.195 62.3045 122.965 61.7496C122.345 62.0271 122.195 62.0271 122.152 61.9844C122.046 61.8136 123.051 60.5543 124.462 60.4262C125.254 60.3409 125.874 60.6397 126.302 60.8318C126.965 61.1519 127.414 61.5575 127.692 61.8563C129.018 60.7251 130.344 59.5938 131.67 58.4839C132.141 58.7614 132.611 59.0815 133.082 59.4017C134.173 60.1488 135.157 60.8958 136.034 61.6215C135.713 62.0271 135.306 62.4753 134.793 62.9235C133.937 63.6706 133.082 64.1188 132.419 64.4176C132.825 64.5457 133.553 64.8445 133.916 65.5489C134.28 66.2319 134.13 66.979 133.916 67.9181C133.766 68.5585 133.574 69.0707 133.424 69.4122C133.51 70.3087 133.553 71.5254 133.296 72.8914C132.889 75.1326 131.948 76.7974 131.307 77.7579C131.285 78.5904 131.264 79.8924 131.307 81.4932C131.478 88.0887 132.44 91.952 133.061 96.8185C133.424 99.5933 133.788 103.713 133.681 108.9C134.173 108.579 134.879 108.067 135.67 107.405C137.68 105.719 138.964 104.033 140.653 101.557C142.322 99.1451 143.413 97.3522 144.888 94.9616C145.808 93.4034 147.284 91.0342 149.145 88.0246Z" fill="white"/>
<path opacity="0.24" d="M129.703 68.5371C129.253 69.519 128.804 70.5221 128.355 71.5467C127.05 74.6203 125.981 77.5658 125.104 80.3833C124.912 84.8229 124.805 88.5369 124.719 91.2263C124.612 95.3031 124.869 100.17 125.339 109.903C125.532 113.915 125.703 116.349 127.585 118.12C129.553 119.956 132.291 119.999 133.831 119.999C142.044 119.977 148.182 112.998 149.872 110.97C147.583 114.855 144.974 117.395 143.199 118.889C141.188 120.575 138.6 122.688 134.579 123.734C131.178 124.63 129.638 124.438 129.232 124.353C126.302 123.649 124.676 121.215 124.099 120.383C122.709 118.312 122.259 116.157 122.003 111.525C121.746 106.765 122.024 105.506 122.11 98.953C122.174 92.6991 121.939 90.9275 122.409 86.5945C122.687 84.0545 123.029 81.9628 123.308 80.5541C122.473 79.6789 121.639 78.8038 120.805 77.95C120.099 78.569 119.372 79.1667 118.645 79.7856C118.174 80.1912 117.682 80.5967 117.212 80.9809C116.784 81.0236 116.164 81.0023 115.501 80.7248C113.79 79.9991 112.72 77.886 113.255 77.1603C113.597 76.6694 114.495 77.0536 115.736 77.0536C117.875 77.0749 119.308 75.9863 122.153 73.9373C124.163 72.4645 126.473 70.821 129.703 68.5371Z" fill="#9B9797"/>
<path d="M148.867 87.8538C143.926 94.6627 140.268 102.475 134.023 108.28C133.724 108.558 134.173 109.006 134.472 108.729C140.76 102.88 144.439 95.0255 149.423 88.174C149.679 87.8538 149.123 87.5336 148.867 87.8538Z" fill="black"/>
<path d="M130.472 124.844C138.942 124.289 145.016 117.203 150.107 111.183C150.364 110.863 149.914 110.415 149.658 110.735C144.717 116.626 138.728 123.67 130.494 124.225C130.066 124.225 130.066 124.865 130.472 124.844Z" fill="black"/>
<path d="M126.451 64.7165C126.494 66.4027 127.606 67.8541 129.232 68.3237C129.638 68.4304 129.809 67.8114 129.403 67.7047C128.056 67.3205 127.136 66.1039 127.093 64.7165C127.072 64.311 126.43 64.311 126.451 64.7165Z" fill="black"/>
<path d="M127.115 64.5244C127.329 62.6674 130.644 64.0121 131.542 64.4817C132.419 64.9299 133.296 65.3782 133.488 66.4454C133.638 67.2565 133.381 68.1103 133.168 68.9C133.061 69.3056 133.681 69.4763 133.788 69.0708C134.087 68.0035 134.408 66.7869 133.959 65.741C133.531 64.6738 132.355 64.1829 131.392 63.7133C130.408 63.2437 129.339 62.9022 128.227 63.0303C127.778 63.0943 127.2 63.201 126.837 63.4999C126.452 63.7987 126.537 64.0121 126.473 64.5457C126.43 64.9299 127.072 64.9299 127.115 64.5244Z" fill="black"/>
<path d="M132.953 68.7719C132.889 70.3941 133.253 71.9736 132.868 73.5958C132.504 75.0899 131.777 76.4773 131.05 77.822C130.857 78.1848 131.414 78.505 131.606 78.1421C132.355 76.7334 133.103 75.3033 133.488 73.7665C133.895 72.1017 133.531 70.4581 133.595 68.7719C133.617 68.345 132.975 68.345 132.953 68.7719Z" fill="black"/>
<path d="M131.05 77.8433C130.558 89.0918 133.788 100.106 133.274 111.354C133.253 111.76 133.895 111.76 133.916 111.354C134.429 100.106 131.2 89.0918 131.692 77.8433C131.713 77.4377 131.071 77.4377 131.05 77.8433Z" fill="black"/>
<path d="M120.548 78.078C121.19 78.9745 121.874 79.8283 122.644 80.618C122.922 80.9169 123.372 80.4686 123.093 80.1698C122.366 79.4014 121.703 78.6117 121.104 77.7579C120.848 77.4164 120.292 77.7365 120.548 78.078Z" fill="black"/>
<path d="M123.008 80.4473C121.789 87.3843 121.19 94.428 121.211 101.472C121.233 104.972 121.404 108.494 121.746 111.973C122.024 114.94 122.366 118.056 123.928 120.66C125.339 123.03 127.821 124.822 130.644 124.758C131.05 124.737 131.05 124.097 130.644 124.118C126.687 124.225 124.142 120.703 123.222 117.245C122.195 113.446 122.11 109.305 121.96 105.399C121.639 97.1174 122.217 88.793 123.65 80.6394C123.693 80.2126 123.072 80.0418 123.008 80.4473Z" fill="black"/>
<path d="M118.966 70.8636C116.955 72.5499 115.009 74.3215 113.169 76.1784C112.87 76.4773 113.34 76.9255 113.619 76.6267C115.479 74.7697 117.404 72.9981 119.415 71.3119C119.736 71.0557 119.286 70.6075 118.966 70.8636Z" fill="black"/>
<path d="M112.977 76.7548C112.656 79.2307 114.538 81.3225 117.041 81.3011C117.447 81.3011 117.447 80.6608 117.041 80.6608C114.88 80.6821 113.34 78.8678 113.618 76.7548C113.683 76.3492 113.041 76.3492 112.977 76.7548Z" fill="black"/>
<path d="M113.576 76.6054C115.822 76.6694 117.383 78.6758 116.912 80.853C116.827 81.2585 117.447 81.4293 117.533 81.0237C118.11 78.3983 116.271 76.0504 113.576 75.9651C113.169 75.9651 113.169 76.6054 113.576 76.6054Z" fill="black"/>
<path d="M117.789 80.9169C120.228 78.6971 122.709 76.4986 125.083 74.2148C126.174 73.1689 127.222 72.1017 128.206 70.9491C128.74 70.3301 130.088 69.1135 130.109 68.2597C130.109 68.153 130.045 68.0249 129.959 67.9822C129.917 67.9609 129.874 67.9395 129.852 67.9395C129.724 67.8755 129.553 67.8755 129.467 67.9822C129.446 68.0035 129.425 68.0249 129.403 68.0676C129.147 68.3877 129.596 68.836 129.852 68.5158C129.874 68.4945 129.895 68.4731 129.917 68.4304C129.788 68.4518 129.66 68.4731 129.532 68.4731C129.489 68.281 129.425 68.281 129.339 68.4945C129.232 68.6439 129.125 68.7933 128.997 68.9427C128.74 69.2629 128.505 69.583 128.227 69.9032C127.799 70.4368 127.329 70.9491 126.879 71.4613C125.938 72.4859 124.955 73.4464 123.949 74.3855C121.768 76.4346 119.543 78.4196 117.34 80.4474C117.019 80.7462 117.49 81.1944 117.789 80.9169Z" fill="black"/>
<path d="M118.067 72.0589C118.217 71.0344 118.367 70.0099 118.516 68.9853C118.623 68.2169 118.709 67.3632 119.137 66.6801C120.121 65.1006 121.511 66.2319 122.259 67.2991C122.58 67.7474 122.88 68.2383 123.201 68.6865C123.372 68.9426 124.206 69.8605 124.099 70.1806C124.206 70.0952 124.313 70.0312 124.398 69.9458C124.356 69.9458 124.334 69.9458 124.291 69.9458C123.885 69.9245 123.885 70.5648 124.291 70.5862C124.334 70.5862 124.356 70.5862 124.398 70.5862C124.548 70.5862 124.676 70.4794 124.698 70.3514C124.847 69.8178 124.484 69.4976 124.206 69.0707C123.671 68.281 123.158 67.4699 122.602 66.7015C122.024 65.9117 121.276 65.1433 120.206 65.25C119.18 65.3568 118.559 66.1465 118.238 67.0643C117.704 68.5798 117.661 70.3087 117.426 71.8882C117.383 72.2937 118.003 72.4645 118.067 72.0589Z" fill="black"/>
<path d="M119.072 69.6471C119.65 70.7784 120.612 71.931 121.981 72.0164C123.115 72.1017 124.184 71.4614 124.484 70.3515C124.591 69.9459 123.97 69.7752 123.863 70.1807C123.585 71.2053 122.452 71.5895 121.511 71.2693C120.612 70.9491 120.035 70.1594 119.628 69.3483C119.436 68.9641 118.88 69.2843 119.072 69.6471Z" fill="black"/>
<path d="M119.864 65.4849C119.971 64.439 121.169 64.1615 121.981 64.439C122.837 64.7165 123.5 65.4849 124.099 66.1039C124.569 66.5948 125.489 67.2778 125.617 67.9609C125.789 68.8787 124.634 69.4977 123.864 69.7325C123.479 69.8392 123.628 70.4582 124.035 70.3514C124.976 70.074 126.345 69.2415 126.494 68.1316C126.558 67.6834 126.28 67.4486 125.981 67.1284C125.382 66.4881 124.805 65.8691 124.184 65.2501C123.35 64.3963 122.281 63.4785 120.997 63.692C120.035 63.8414 119.329 64.4817 119.222 65.4636C119.179 65.8904 119.821 65.8904 119.864 65.4849Z" fill="black"/>
<path d="M121.019 63.9054C121.318 63.5639 121.468 63.1156 121.746 62.7741C122.43 61.9203 123.5 62.7101 124.206 63.2224C125.575 64.1829 127.029 65.9331 125.788 67.598C125.553 67.9395 126.109 68.2597 126.345 67.9181C127.671 66.1252 126.366 64.0548 124.847 62.9022C124.142 62.3686 123.072 61.4081 122.11 61.6856C121.254 61.9204 121.104 62.9022 120.57 63.4785C120.292 63.756 120.741 64.2042 121.019 63.9054Z" fill="black"/>
<path d="M123.179 61.963C123.928 61.0452 124.912 60.0847 126.067 61.0452C126.837 61.6642 127.328 62.5393 127.607 63.4571C127.735 63.8413 128.334 63.6919 128.227 63.2864C127.863 62.0484 127.029 60.6183 125.788 60.1061C124.527 59.5938 123.479 60.597 122.73 61.5148C122.473 61.8136 122.922 62.2832 123.179 61.963Z" fill="black"/>
<path d="M127.906 62.0484C129.232 60.9172 130.558 59.7859 131.884 58.676C132.205 58.3985 131.734 57.9503 131.435 58.2278C130.109 59.359 128.783 60.4903 127.457 61.6002C127.136 61.8777 127.606 62.3259 127.906 62.0484Z" fill="black"/>
<path d="M132.633 64.7805C133.895 63.8627 135.114 62.8808 136.247 61.8136C136.547 61.5361 136.098 61.0879 135.798 61.3654C134.686 62.3899 133.531 63.3504 132.312 64.2255C131.97 64.4603 132.291 65.0153 132.633 64.7805Z" fill="black"/>
<path d="M142.236 63.1797C149.371 63.1797 155.155 57.4077 155.155 50.2876C155.155 43.1675 149.371 37.3956 142.236 37.3956C135.101 37.3956 129.318 43.1675 129.318 50.2876C129.318 57.4077 135.101 63.1797 142.236 63.1797Z" stroke="black" stroke-width="3" stroke-miterlimit="10"/>
<path d="M134.408 51.8671C139.156 48.8362 144.011 45.976 148.974 43.2866C149.337 43.0945 149.016 42.5396 148.653 42.7317C143.691 45.3997 138.835 48.2599 134.087 51.3121C133.745 51.5469 134.066 52.1019 134.408 51.8671Z" fill="black"/>
<path d="M134.943 57.4593C138.857 54.5992 142.814 51.8457 146.856 49.1563C147.198 48.9215 146.877 48.3666 146.535 48.6014C142.514 51.2908 138.536 54.0656 134.622 56.9044C134.28 57.1392 134.601 57.6941 134.943 57.4593Z" fill="black"/>
</svg>
