<svg width="26" height="26" viewBox="0 0 26 26" fill="none" xmlns="http://www.w3.org/2000/svg">
<path d="M6.33758 13L6.01258 11.375C5.79591 11.2847 5.59279 11.1899 5.40321 11.0906C5.21362 10.9913 5.01953 10.8694 4.82091 10.725L3.25008 11.2125L2.16675 9.37082L3.41258 8.28749C3.37647 8.05277 3.35841 7.81805 3.35841 7.58332C3.35841 7.3486 3.37647 7.11388 3.41258 6.87916L2.16675 5.79582L3.25008 3.95416L4.82091 4.44166C5.01953 4.29721 5.21362 4.17534 5.40321 4.07603C5.59279 3.97673 5.79591 3.88193 6.01258 3.79166L6.33758 2.16666H8.50425L8.82925 3.79166C9.04592 3.88193 9.24904 3.97673 9.43862 4.07603C9.62821 4.17534 9.8223 4.29721 10.0209 4.44166L11.5917 3.95416L12.6751 5.79582L11.4292 6.87916C11.4654 7.11388 11.4834 7.3486 11.4834 7.58332C11.4834 7.81805 11.4654 8.05277 11.4292 8.28749L12.6751 9.37082L11.5917 11.2125L10.0209 10.725C9.8223 10.8694 9.62821 10.9913 9.43862 11.0906C9.24904 11.1899 9.04592 11.2847 8.82925 11.375L8.50425 13H6.33758ZM7.42092 9.74999C8.01675 9.74999 8.52682 9.53784 8.95112 9.11353C9.37543 8.68923 9.58758 8.17916 9.58758 7.58332C9.58758 6.98749 9.37543 6.47742 8.95112 6.05311C8.52682 5.62881 8.01675 5.41666 7.42092 5.41666C6.82508 5.41666 6.31501 5.62881 5.89071 6.05311C5.4664 6.47742 5.25425 6.98749 5.25425 7.58332C5.25425 8.17916 5.4664 8.68923 5.89071 9.11353C6.31501 9.53784 6.82508 9.74999 7.42092 9.74999ZM16.0334 24.9167L15.5459 22.6417C15.239 22.5333 14.9546 22.4024 14.6928 22.2489C14.431 22.0955 14.1737 21.9194 13.9209 21.7208L11.7542 22.425L10.2376 19.825L11.9709 18.3083C11.9348 17.9833 11.9167 17.6583 11.9167 17.3333C11.9167 17.0083 11.9348 16.6833 11.9709 16.3583L10.2376 14.8417L11.7542 12.2417L13.9209 12.9458C14.1737 12.7472 14.431 12.5712 14.6928 12.4177C14.9546 12.2642 15.239 12.1333 15.5459 12.025L16.0334 9.74999H19.0667L19.5542 12.025C19.8612 12.1333 20.1456 12.2642 20.4074 12.4177C20.6692 12.5712 20.9265 12.7472 21.1792 12.9458L23.3459 12.2417L24.8626 14.8417L23.1292 16.3583C23.1654 16.6833 23.1834 17.0083 23.1834 17.3333C23.1834 17.6583 23.1654 17.9833 23.1292 18.3083L24.8626 19.825L23.3459 22.425L21.1792 21.7208C20.9265 21.9194 20.6692 22.0955 20.4074 22.2489C20.1456 22.4024 19.8612 22.5333 19.5542 22.6417L19.0667 24.9167H16.0334ZM17.5501 20.5833C18.4529 20.5833 19.2202 20.2674 19.8522 19.6354C20.4841 19.0035 20.8001 18.2361 20.8001 17.3333C20.8001 16.4305 20.4841 15.6632 19.8522 15.0312C19.2202 14.3993 18.4529 14.0833 17.5501 14.0833C16.6473 14.0833 15.8799 14.3993 15.248 15.0312C14.6161 15.6632 14.3001 16.4305 14.3001 17.3333C14.3001 18.2361 14.6161 19.0035 15.248 19.6354C15.8799 20.2674 16.6473 20.5833 17.5501 20.5833Z" fill="#0A3871"/>
</svg>
