<svg width="30" height="30" viewBox="0 0 32 40" fill="none" xmlns="http://www.w3.org/2000/svg">
<path d="M13 26H19L17.85 19.55C18.5167 19.2167 19.0417 18.7333 19.425 18.1C19.8083 17.4667 20 16.7667 20 16C20 14.9 19.6083 13.9583 18.825 13.175C18.0417 12.3917 17.1 12 16 12C14.9 12 13.9583 12.3917 13.175 13.175C12.3917 13.9583 12 14.9 12 16C12 16.7667 12.1917 17.4667 12.575 18.1C12.9583 18.7333 13.4833 19.2167 14.15 19.55L13 26ZM16 40C11.3667 38.8333 7.54167 36.175 4.525 32.025C1.50833 27.875 0 23.2667 0 18.2V6L16 0L32 6V18.2C32 23.2667 30.4917 27.875 27.475 32.025C24.4583 36.175 20.6333 38.8333 16 40ZM16 35.8C19.4667 34.7 22.3333 32.5 24.6 29.2C26.8667 25.9 28 22.2333 28 18.2V8.75L16 4.25L4 8.75V18.2C4 22.2333 5.13333 25.9 7.4 29.2C9.66667 32.5 12.5333 34.7 16 35.8Z" fill="#F3F5FC"/>
</svg>
