<svg width="33" height="33" viewBox="0 0 33 33" fill="none" xmlns="http://www.w3.org/2000/svg">
<path d="M16.7178 33C12.5733 33 8.9618 31.6021 5.88342 28.8063C2.80503 26.0104 1.04059 22.5194 0.590099 18.3333H4.28416C4.70462 21.5111 6.09365 24.1389 8.45124 26.2167C10.8088 28.2944 13.5644 29.3333 16.7178 29.3333C20.2317 29.3333 23.2125 28.0882 25.6602 25.5979C28.1078 23.1076 29.3317 20.075 29.3317 16.5C29.3317 12.925 28.1078 9.89236 25.6602 7.40208C23.2125 4.91181 20.2317 3.66667 16.7178 3.66667C14.6455 3.66667 12.7084 4.15556 10.9064 5.13333C9.10446 6.11111 7.58779 7.45556 6.35644 9.16667H11.3119V12.8333H0.5V1.83333H4.10396V6.14167C5.63564 4.18611 7.5052 2.67361 9.71263 1.60417C11.9201 0.534722 14.2551 0 16.7178 0C18.9703 0 21.0801 0.435417 23.0473 1.30625C25.0144 2.17708 26.7263 3.35347 28.1829 4.83542C29.6395 6.31736 30.7958 8.05903 31.6517 10.0604C32.5077 12.0618 32.9357 14.2083 32.9357 16.5C32.9357 18.7917 32.5077 20.9382 31.6517 22.9396C30.7958 24.941 29.6395 26.6826 28.1829 28.1646C26.7263 29.6465 25.0144 30.8229 23.0473 31.6938C21.0801 32.5646 18.9703 33 16.7178 33ZM21.7634 24.2L14.9158 17.2333V7.33333H18.5198V15.7667L24.2861 21.6333L21.7634 24.2Z" fill="#29BA63"/>
</svg>
