<svg width="44" height="55" viewBox="0 0 44 55" fill="none" xmlns="http://www.w3.org/2000/svg">
<path d="M35.3334 19.5H14.0001V14.1667C14.0001 12.0333 14.8001 10.1667 16.4001 8.56667C19.6001 5.36667 24.6667 5.36667 27.6001 8.56667C28.6667 9.63334 29.2001 10.9667 29.7334 12.3C30.0001 13.6333 31.6001 14.4333 32.9334 14.1667C34.2668 13.9 35.3334 12.3 34.8001 10.9667C34.2667 8.56667 32.9334 6.43334 31.3334 4.83334C28.9334 2.16667 25.4667 0.833336 22.0001 0.833336C14.5334 0.833336 8.66675 6.7 8.66675 14.1667V19.5C4.13341 19.5 0.666748 22.9667 0.666748 27.5V46.1667C0.666748 50.7 4.13341 54.1667 8.66675 54.1667H35.3334C39.8667 54.1667 43.3334 50.7 43.3334 46.1667V27.5C43.3334 22.9667 39.8667 19.5 35.3334 19.5Z" fill="#DA5A5A"/>
</svg>
