<svg width="34" height="39" viewBox="0 0 34 39" fill="none" xmlns="http://www.w3.org/2000/svg">
<path d="M27.7127 24.4839C25.87 24.4839 24.2167 25.3835 23.0734 26.8032L12.3956 20.864C12.4763 20.4167 12.5267 19.9608 12.5267 19.5C12.5267 19.038 12.4764 18.5814 12.3964 18.1355L23.0734 12.1968C24.2167 13.6165 25.87 14.5161 27.7127 14.5161C31.1536 14.5161 33.9531 11.3972 33.9531 7.56305C33.9531 3.72886 31.1536 0.609375 27.7127 0.609375C24.2717 0.609375 21.4727 3.72885 21.4727 7.56304C21.4727 8.03339 21.5159 8.49258 21.5962 8.93696L10.9309 14.8692C9.76651 13.4195 8.07769 12.541 6.29213 12.541C2.84854 12.541 0.046875 15.6628 0.046875 19.5C0.046875 23.3372 2.84854 26.459 6.29214 26.459C8.08291 26.459 9.77574 25.5749 10.9338 24.1323L21.5962 30.063C21.5159 30.5073 21.4727 30.9666 21.4727 31.437C21.4727 35.2711 24.2717 38.3906 27.7127 38.3906C31.1536 38.3906 33.9531 35.2711 33.9531 31.437C33.9531 27.6028 31.1536 24.4839 27.7127 24.4839ZM27.7127 4.26562C29.3442 4.26562 30.6719 5.74503 30.6719 7.56304C30.6719 9.38105 29.3442 10.8599 27.7127 10.8599C26.0811 10.8599 24.754 9.38105 24.754 7.56304C24.754 5.74503 26.0811 4.26562 27.7127 4.26562ZM6.29214 22.8028C4.65793 22.8028 3.32812 21.321 3.32812 19.5C3.32812 17.679 4.65793 16.1972 6.29214 16.1972C7.40085 16.1972 8.43318 16.9114 8.9368 18.0498C9.14188 18.4901 9.24549 18.9781 9.24549 19.5C9.24549 20.0219 9.14188 20.5099 8.92185 20.9836C8.43318 22.0886 7.40085 22.8028 6.29214 22.8028ZM27.7127 34.7344C26.0811 34.7344 24.754 33.255 24.754 31.437C24.754 29.619 26.0811 28.1401 27.7127 28.1401C29.3442 28.1401 30.6719 29.619 30.6719 31.437C30.6719 33.255 29.3442 34.7344 27.7127 34.7344Z" fill="#29BA63"/>
</svg>
