<svg width="38" height="39" viewBox="0 0 38 39" fill="none" xmlns="http://www.w3.org/2000/svg">
<path d="M22.7194 0.5H15.2806L14.1924 5.92939C13.7182 6.09674 13.2531 6.28893 12.7991 6.50515L8.19303 3.4306L2.93636 8.69303L6.01091 13.2991C5.79469 13.7531 5.6025 14.2182 5.43515 14.6924L0 15.7806V23.2194L5.42939 24.3076C5.59674 24.7818 5.78893 25.2469 6.00515 25.7009L2.93061 30.307L8.19303 35.5694L12.7991 32.4948C13.2531 32.7111 13.7182 32.9033 14.1924 33.0706L15.2806 38.5H22.7194L23.8076 33.0706C24.2818 32.9033 24.7469 32.7111 25.2009 32.4948L29.807 35.5694L35.0694 30.307L31.9948 25.7009C32.2111 25.2469 32.4033 24.7818 32.5706 24.3076L38 23.2194V15.7806L32.5706 14.6924C32.4033 14.2182 32.2111 13.7531 31.9948 13.2991L35.0694 8.69303L29.807 3.43636L25.2009 6.51091C24.7469 6.29469 24.2818 6.1025 23.8076 5.93515L22.7194 0.5ZM18.1133 3.95455H19.8867L20.8251 8.66424C22.4447 8.9994 23.9861 9.63824 25.3679 10.547L29.3636 7.88121L30.6188 9.13636L27.953 13.1321C28.862 14.5138 29.5009 16.0552 29.8358 17.6749L34.5455 18.6133V20.3867L29.8358 21.3252C29.5006 22.9447 28.8618 24.4861 27.953 25.8679L30.6188 29.8636L29.3636 31.1188L25.3679 28.453C23.9862 29.362 22.4448 30.0009 20.8251 30.3358L19.8867 35.0455H18.1133L17.1748 30.3358C15.5553 30.0006 14.0139 29.3618 12.6321 28.453L8.63636 31.1188L7.38121 29.8636L10.047 25.8679C9.13799 24.4862 8.49914 22.9448 8.16424 21.3252L3.45455 20.3867V18.6133L8.16424 17.6749C8.4994 16.0553 9.13824 14.5139 10.047 13.1321L7.38121 9.13636L8.63636 7.88121L12.6321 10.547C14.0138 9.63799 15.5552 8.99914 17.1748 8.66424L18.1133 3.95455Z" fill="#29BA63"/>
<path d="M19.0001 13.1667C17.7475 13.1667 16.523 13.5381 15.4815 14.2341C14.44 14.93 13.6282 15.9191 13.1488 17.0764C12.6695 18.2336 12.5441 19.5071 12.7884 20.7356C13.0328 21.9642 13.636 23.0926 14.5217 23.9784C15.4075 24.8641 16.536 25.4673 17.7645 25.7117C18.9931 25.9561 20.2665 25.8306 21.4237 25.3513C22.581 24.8719 23.5701 24.0602 24.2661 23.0186C24.962 21.9771 25.3334 20.7527 25.3334 19.5C25.3334 17.8203 24.6662 16.2094 23.4784 15.0217C22.2907 13.834 20.6798 13.1667 19.0001 13.1667ZM19.0001 22.3788C18.4307 22.3788 17.8741 22.21 17.4007 21.8937C16.9273 21.5773 16.5583 21.1277 16.3404 20.6017C16.1225 20.0757 16.0655 19.4968 16.1766 18.9384C16.2877 18.38 16.5619 17.867 16.9645 17.4644C17.3671 17.0618 17.88 16.7876 18.4385 16.6766C18.9969 16.5655 19.5757 16.6225 20.1017 16.8404C20.6278 17.0583 21.0774 17.4273 21.3937 17.9007C21.71 18.3741 21.8789 18.9307 21.8789 19.5C21.8789 20.2635 21.5756 20.9958 21.0357 21.5356C20.4958 22.0755 19.7636 22.3788 19.0001 22.3788Z" fill="#29BA63"/>
</svg>
