<svg width="35" height="39" viewBox="0 0 35 39" fill="none" xmlns="http://www.w3.org/2000/svg">
<path d="M13.6111 31.2C14.1268 31.2 14.6214 30.9946 14.986 30.6289C15.3507 30.2632 15.5556 29.7672 15.5556 29.25V17.55C15.5556 17.0328 15.3507 16.5368 14.986 16.1711C14.6214 15.8054 14.1268 15.6 13.6111 15.6C13.0954 15.6 12.6008 15.8054 12.2362 16.1711C11.8715 16.5368 11.6667 17.0328 11.6667 17.55V29.25C11.6667 29.7672 11.8715 30.2632 12.2362 30.6289C12.6008 30.9946 13.0954 31.2 13.6111 31.2ZM33.0556 7.8H25.2778V5.85C25.2778 4.29848 24.6632 2.81051 23.5692 1.71343C22.4753 0.616338 20.9915 0 19.4444 0H15.5556C14.0085 0 12.5247 0.616338 11.4308 1.71343C10.3368 2.81051 9.72222 4.29848 9.72222 5.85V7.8H1.94444C1.42875 7.8 0.934169 8.00545 0.569515 8.37114C0.20486 8.73684 0 9.23283 0 9.75C0 10.2672 0.20486 10.7632 0.569515 11.1289C0.934169 11.4946 1.42875 11.7 1.94444 11.7H3.88889V33.15C3.88889 34.7015 4.50347 36.1895 5.59743 37.2866C6.69139 38.3837 8.17513 39 9.72222 39H25.2778C26.8249 39 28.3086 38.3837 29.4026 37.2866C30.4965 36.1895 31.1111 34.7015 31.1111 33.15V11.7H33.0556C33.5713 11.7 34.0658 11.4946 34.4305 11.1289C34.7951 10.7632 35 10.2672 35 9.75C35 9.23283 34.7951 8.73684 34.4305 8.37114C34.0658 8.00545 33.5713 7.8 33.0556 7.8ZM13.6111 5.85C13.6111 5.33283 13.816 4.83684 14.1806 4.47114C14.5453 4.10545 15.0399 3.9 15.5556 3.9H19.4444C19.9601 3.9 20.4547 4.10545 20.8194 4.47114C21.184 4.83684 21.3889 5.33283 21.3889 5.85V7.8H13.6111V5.85ZM27.2222 33.15C27.2222 33.6672 27.0174 34.1632 26.6527 34.5289C26.2881 34.8946 25.7935 35.1 25.2778 35.1H9.72222C9.20652 35.1 8.71195 34.8946 8.34729 34.5289C7.98264 34.1632 7.77778 33.6672 7.77778 33.15V11.7H27.2222V33.15ZM21.3889 31.2C21.9046 31.2 22.3992 30.9946 22.7638 30.6289C23.1285 30.2632 23.3333 29.7672 23.3333 29.25V17.55C23.3333 17.0328 23.1285 16.5368 22.7638 16.1711C22.3992 15.8054 21.9046 15.6 21.3889 15.6C20.8732 15.6 20.3786 15.8054 20.014 16.1711C19.6493 16.5368 19.4444 17.0328 19.4444 17.55V29.25C19.4444 29.7672 19.6493 30.2632 20.014 30.6289C20.3786 30.9946 20.8732 31.2 21.3889 31.2Z" fill="#DA5A5A"/>
</svg>
